<svg enable-background="new 0 0 918.697 753.302" height="754" viewBox="0 0 918.697 753.302" width="919" xmlns="http://www.w3.org/2000/svg"><path d="m61.932 265.207c-3.966-16.92 71.302-216.205 89.143-225.463s72.04 14.092 84.039 6.639 56.175-42.808 70.621-43.867c14.446-1.059 65.629 51.826 81.912 57.139 16.283 5.312 155.265-45.555 169.777-43.058s29.836 40.63 42.078 50.114c12.243 9.483 99.248 23.424 116.983 25.696s60.046 52.315 67.06 66.573-3.282 88.99 7.368 100.5 99.015 104.105 106.684 118.757-14.421 40.637-13.036 59.533 30.596 111.688 31.62 125.657-48.431 47.817-59.82 58.707-1.588 58.318-7.029 70.357c-5.44 12.039-58.379 15.921-70.053 16.776-11.673.856-713.381-427.14-717.347-444.06z" fill="#aef45d"/><path d="m779.236 711.771c-1.916 0-9.773-2.61-117.689-67.001-67.932-40.533-157.282-94.746-245.14-148.737-95.482-58.677-182.031-112.686-243.704-152.076-111.586-71.272-112.64-75.766-113.206-78.18-2.632-11.228 22.722-81.492 36.497-117.077 9.453-24.42 41.278-104.609 53.929-111.174 10.315-5.356 30.152-1.021 49.335 3.168 14.649 3.2 29.799 6.511 34.537 3.564 3.111-1.933 8.648-5.938 15.06-10.576 23.913-17.301 46.245-32.894 56.697-33.659 8.397-.625 24.399 12.079 47.801 31.522 13.924 11.568 28.322 23.531 35.069 25.732 8.196 2.673 58.601-12.716 95.407-23.952 41.474-12.661 67.239-20.358 74.019-19.193 9.663 1.663 18.704 15.864 27.448 29.599 5.693 8.941 11.07 17.388 15.737 21.003 11.029 8.542 92.539 22.215 115.77 25.192 19.116 2.449 62.235 54.229 68.985 67.949 3.425 6.961 3.087 24.997 2.695 45.881-.404 21.579-.908 48.435 4.265 54.024 1.613 1.744 5.014 5.352 9.647 10.269 42.252 44.833 91.509 97.741 97.416 109.027 4.758 9.09-.172 20.94-5.391 33.486-3.907 9.393-7.948 19.105-7.367 27.023.727 9.911 9.678 42.015 17.576 70.34 7.272 26.083 13.553 48.609 14.044 55.316.788 10.743-20.135 28.219-45.489 48.275-6.539 5.173-12.186 9.639-15.095 12.422-5.875 5.617-5.251 24.948-4.751 40.48.408 12.66.76 23.594-1.728 29.1-4.016 8.886-28.287 15.022-72.139 18.24-.071.007-.147.013-.235.013zm.285-4.979c-.001-.001-.001-.001 0 0zm-715.195-442.35c6.222 9.511 145.194 98.583 354.691 227.326 185.401 113.935 349.763 211.986 360.354 214.985 58.327-4.304 66.554-12.79 67.684-15.292 2.01-4.447 1.642-15.852 1.287-26.88-.587-18.236-1.195-37.095 6.292-44.255 3.08-2.945 8.812-7.479 15.449-12.729 15.469-12.237 44.263-35.015 43.605-43.989-.456-6.209-6.974-29.588-13.875-54.339-8.349-29.945-16.982-60.909-17.746-71.317-.667-9.105 3.605-19.376 7.737-29.309 4.756-11.435 9.249-22.234 5.578-29.248-6.346-12.124-71.934-81.718-96.625-107.916-4.649-4.934-8.06-8.553-9.679-10.302-6.084-6.576-6.166-27.042-5.594-57.515.348-18.538.707-37.707-2.183-43.58-7.073-14.378-49.018-63.132-65.134-65.197-12.007-1.538-104.707-15.751-118.196-26.198-5.356-4.148-10.96-12.951-16.894-22.271-7.778-12.219-16.595-26.069-24.077-27.356-5.951-1.009-39.382 9.18-71.711 19.048-53.594 16.361-89.399 26.86-98.418 23.924-7.657-2.498-21.771-14.225-36.714-26.641-16.568-13.765-37.156-30.862-44.241-30.382-9.902.726-37.59 20.757-54.132 32.725-6.755 4.887-12.091 8.746-15.352 10.772-6.463 4.011-21.189.796-38.242-2.928-17.462-3.813-37.252-8.136-45.965-3.615-7.04 3.653-28.245 48.287-51.568 108.541-21.828 56.391-37.683 106.147-36.331 113.938zm.039.194h.01z" fill="#aef45d"/><path d="m745.708 224.74c-57.324 13.634-90.377 78.257-73.828 144.34s76.436 108.601 133.759 94.967c57.324-13.634 90.378-78.257 73.828-144.34-16.549-66.083-76.435-108.601-133.759-94.967zm114.886 99.456c13.54 54.066-13.503 106.938-60.403 118.093s-95.896-23.632-109.437-77.698c-13.54-54.066 13.503-106.938 60.403-118.093s95.896 23.631 109.437 77.698z" fill="#ffa9d8"/><path d="m784.033 469.078c-51.136.003-99.849-40.575-114.578-99.392-8.869-35.414-3.933-72.222 13.543-100.984 14.479-23.833 36.545-40.31 62.132-46.396l.579 2.433-.579-2.433c58.557-13.921 119.909 29.493 136.763 96.792 8.869 35.413 3.933 72.221-13.542 100.984-14.479 23.833-36.545 40.31-62.132 46.396-7.381 1.756-14.812 2.6-22.186 2.6zm-16.691-244.374c-7.002 0-14.049.801-21.055 2.468-24.277 5.773-45.236 21.444-59.016 44.126-16.786 27.629-21.512 63.048-12.965 97.174 16.191 64.655 74.849 106.444 130.755 93.142 24.277-5.773 45.236-21.444 59.016-44.127 16.786-27.629 21.512-63.047 12.965-97.173-14.163-56.554-60.817-95.61-109.7-95.61zm15.173 222.156c-42.043 0-82.083-33.334-94.187-81.662-7.285-29.091-3.228-59.331 11.132-82.967 11.91-19.604 30.064-33.158 51.118-38.166 48.15-11.446 98.591 24.223 112.44 79.523 7.285 29.091 3.228 59.332-11.133 82.968-11.91 19.604-30.064 33.157-51.117 38.165-6.07 1.443-12.186 2.139-18.253 2.139zm-13.656-199.937c-5.697 0-11.425.651-17.123 2.007-19.744 4.695-36.791 17.444-48.002 35.896-13.67 22.502-17.518 51.354-10.555 79.156 11.536 46.063 49.521 77.878 89.309 77.88 5.697.001 11.426-.651 17.124-2.007 19.743-4.695 36.79-17.443 48.001-35.896 13.671-22.502 17.519-51.354 10.555-79.157-11.535-46.062-49.521-77.879-89.309-77.879z" fill="#ffa9d8"/><path d="m751.157 246.497c-46.9 11.155-73.943 64.027-60.403 118.093s62.537 88.853 109.437 77.698 73.943-64.027 60.403-118.093c-13.541-54.066-62.537-88.852-109.437-77.698zm90.182 82.278c10.47 41.808-10.442 82.691-46.707 91.317-36.266 8.626-74.153-18.273-84.623-60.081-10.47-41.807 10.441-82.691 46.707-91.317 36.266-8.625 74.153 18.274 84.623 60.081z" fill="#f6f6f6"/><path d="m782.515 446.86c-42.043.005-82.083-33.334-94.187-81.662-7.285-29.091-3.228-59.331 11.132-82.967 11.91-19.604 30.064-33.158 51.118-38.166 48.15-11.446 98.591 24.223 112.44 79.523 7.285 29.091 3.228 59.332-11.133 82.968-11.91 19.604-30.064 33.157-51.117 38.165-6.07 1.443-12.186 2.139-18.253 2.139zm-30.779-197.93c-19.744 4.695-36.791 17.444-48.002 35.896-13.67 22.502-17.518 51.354-10.555 79.156 11.536 46.063 49.521 77.878 89.309 77.88 5.697.001 11.426-.651 17.124-2.007 19.743-4.695 36.79-17.443 48.001-35.896 13.671-22.502 17.519-51.354 10.555-79.157-13.187-52.657-60.93-86.696-106.432-75.872zm29.232 175.264c-32.766 0-63.961-25.949-73.385-63.575-5.67-22.641-2.509-46.183 8.673-64.588 9.289-15.289 23.452-25.861 39.88-29.77 37.535-8.92 76.843 18.845 87.627 61.906 5.67 22.641 2.508 46.183-8.674 64.588-9.289 15.289-23.452 25.861-39.88 29.77-4.737 1.126-9.508 1.669-14.241 1.669zm-10.561-154.605c-4.362 0-8.75.499-13.113 1.537-15.118 3.596-28.175 13.362-36.764 27.501-10.493 17.271-13.444 39.423-8.096 60.776 10.123 40.419 46.739 66.56 81.619 58.256 15.118-3.596 28.175-13.362 36.764-27.5 10.493-17.271 13.444-39.424 8.097-60.777-8.857-35.364-37.994-59.793-68.507-59.793z" fill="#f6f6f6"/><path d="m94.302 115.008c-47.304 11.251-74.581 64.579-60.924 119.111s63.076 89.619 110.38 78.368 74.581-64.579 60.924-119.111c-13.657-54.533-63.076-89.619-110.38-78.368zm94.805 82.072c11.174 44.616-11.143 88.247-49.846 97.452s-79.135-19.501-90.309-64.118c-11.174-44.616 11.143-88.247 49.846-97.452s79.136 19.502 90.309 64.118z" fill="#ffa9d8"/><path d="m125.93 317.077c-42.396 0-82.773-33.616-94.978-82.351-7.347-29.336-3.255-59.832 11.226-83.667 12.01-19.768 30.315-33.435 51.544-38.484 48.551-11.549 99.417 24.426 113.384 80.193 7.347 29.336 3.255 59.831-11.226 83.666-12.01 19.769-30.315 33.436-51.545 38.485-6.121 1.456-12.287 2.158-18.405 2.158zm-13.773-201.663c-5.748 0-11.527.657-17.276 2.025-19.919 4.737-37.118 17.599-48.429 36.216-13.792 22.7-17.673 51.807-10.648 79.855 11.637 46.471 49.958 78.565 90.1 78.568 5.747 0 11.527-.657 17.276-2.025 19.919-4.737 37.119-17.599 48.429-36.216 13.792-22.701 17.673-51.807 10.648-79.855-11.638-46.47-49.959-78.568-90.1-78.568zm12.521 183.327c-34.89.002-68.114-27.642-78.151-67.719-6.04-24.119-2.673-49.195 9.237-68.8 9.89-16.277 24.967-27.532 42.455-31.692 39.966-9.499 81.826 20.077 93.312 65.943 6.04 24.118 2.673 49.194-9.236 68.798-9.89 16.278-24.967 27.533-42.456 31.693-5.043 1.199-10.12 1.777-15.161 1.777zm-11.269-164.991c-4.668 0-9.363.533-14.032 1.645-16.178 3.848-30.149 14.297-39.339 29.424-11.221 18.47-14.377 42.157-8.66 64.988 10.825 43.225 49.993 71.174 87.305 62.292 16.178-3.848 30.149-14.297 39.339-29.424 11.221-18.47 14.377-42.156 8.659-64.987-9.469-37.816-40.633-63.938-73.272-63.938z" fill="#ffa9d8"/><ellipse cx="119.03" cy="213.747" fill="#f6f6f6" rx="72.012" ry="83.297" transform="matrix(.9609 -.2769 .2769 .9609 -54.539 41.324)"/><path d="m124.678 298.741c-34.89 0-68.114-27.642-78.151-67.719-6.04-24.119-2.673-49.195 9.237-68.8 9.89-16.277 24.967-27.532 42.455-31.692 39.966-9.499 81.826 20.077 93.312 65.943 6.04 24.118 2.673 49.194-9.236 68.798-9.89 16.278-24.967 27.533-42.456 31.693-5.043 1.199-10.12 1.777-15.161 1.777zm-11.269-164.991c-4.668 0-9.363.533-14.032 1.645-16.178 3.848-30.149 14.297-39.339 29.424-11.221 18.47-14.377 42.157-8.66 64.988 10.825 43.225 49.993 71.174 87.305 62.292 16.178-3.848 30.149-14.297 39.339-29.424 11.221-18.47 14.377-42.156 8.659-64.987-9.469-37.816-40.633-63.938-73.272-63.938z" fill="#f6f6f6"/><path d="m304.391 89.237c-14.689 52.945 19.035 108.421 75.325 123.91s113.83-14.875 128.519-67.819c14.689-52.945-19.035-108.421-75.325-123.91s-113.83 14.875-128.519 67.819zm123.682-50.387c46.054 12.673 73.646 58.061 61.628 101.378s-59.095 68.16-105.149 55.487-73.646-58.061-61.628-101.378 59.095-68.16 105.149-55.487z" fill="#ffa9d8"/><path d="m409.355 219.675c-9.984 0-20.162-1.328-30.302-4.118-29.045-7.992-52.972-26.382-67.375-51.781-13.233-23.338-16.677-50.048-9.697-75.207 15.033-54.187 74.064-85.395 131.591-69.561 29.044 7.991 52.972 26.381 67.375 51.78 13.233 23.339 16.678 50.048 9.697 75.208-12.383 44.635-54.63 73.679-101.289 73.679zm-104.964-130.438 2.409.668c-6.623 23.871-3.346 49.23 9.228 71.404 13.743 24.236 36.596 41.79 64.351 49.428 54.875 15.099 111.149-14.544 125.447-66.076 6.623-23.872 3.346-49.23-9.229-71.406-13.743-24.235-36.597-41.789-64.351-49.426-54.876-15.1-111.149 14.542-125.446 66.076zm104.41 112.274c-8.208 0-16.576-1.092-24.912-3.386-23.88-6.571-43.555-21.693-55.398-42.58-10.887-19.2-13.72-41.175-7.977-61.876 12.366-44.574 60.915-70.25 108.222-57.229 23.881 6.571 43.555 21.693 55.398 42.58 10.887 19.2 13.719 41.175 7.976 61.876-10.187 36.72-44.935 60.615-83.309 60.615zm-4.984-163.458c-36.184 0-68.909 22.44-78.484 56.952-5.386 19.413-2.72 40.037 7.507 58.073 11.184 19.725 29.785 34.01 52.375 40.227 44.655 12.286 90.446-11.822 102.077-53.745 5.386-19.413 2.72-40.037-7.507-58.073-11.184-19.724-29.784-34.01-52.375-40.227-7.893-2.172-15.823-3.207-23.593-3.207z" fill="#ffa9d8"/><path d="m322.924 94.337c-12.018 43.317 15.574 88.706 61.628 101.378 46.055 12.672 93.131-12.17 105.149-55.487s-15.574-88.706-61.628-101.378c-46.054-12.673-93.131 12.17-105.149 55.487zm100.215-37.703c35.612 9.799 56.948 44.896 47.655 78.392s-45.696 52.705-81.308 42.906-56.948-44.896-47.655-78.392c9.294-33.496 45.696-52.706 81.308-42.906z" fill="#f6f6f6"/><path d="m408.801 201.511c-8.208 0-16.576-1.092-24.912-3.386-23.88-6.571-43.555-21.693-55.398-42.58-10.887-19.2-13.72-41.175-7.977-61.876 12.366-44.574 60.915-70.25 108.222-57.229 23.88 6.571 43.555 21.693 55.398 42.58 10.887 19.2 13.719 41.175 7.976 61.876-10.187 36.72-44.935 60.615-83.309 60.615zm-83.468-106.506c-5.386 19.413-2.72 40.037 7.507 58.073 11.184 19.725 29.785 34.01 52.375 40.227 44.655 12.286 90.446-11.822 102.077-53.745 5.386-19.413 2.72-40.037-7.507-58.073-11.184-19.724-29.784-34.01-52.375-40.227-44.651-12.283-90.445 11.823-102.077 53.745zm82.904 87.975c-6.397 0-12.917-.851-19.414-2.639-18.612-5.121-33.947-16.908-43.18-33.191-8.494-14.979-10.703-32.124-6.221-48.278 9.646-34.767 47.5-54.797 84.38-44.648 18.612 5.121 33.947 16.909 43.18 33.192 8.493 14.979 10.702 32.124 6.221 48.278-7.947 28.643-35.045 47.286-64.966 47.286zm-3.854-126.396c-27.733 0-52.808 17.187-60.142 43.623-4.125 14.866-2.082 30.661 5.752 44.477 8.573 15.119 22.834 26.07 40.157 30.837 34.228 9.417 69.325-9.047 78.235-41.163 4.125-14.866 2.082-30.661-5.752-44.476-8.573-15.12-22.834-26.072-40.157-30.839-6.052-1.665-12.136-2.459-18.093-2.459z" fill="#f6f6f6"/><path d="m5.607 238.88c-6.16 13.698-2.408 49.229 4.683 63.878 7.092 14.648 718.18 442.005 733.974 446.771s43.079-4.442 52.692-17.722c9.614-13.279 41.16-192.296 39.476-215.271s-40.607-205.89-47.755-229.924-139.997-174.309-162.592-185.52-209.643-53.94-237.283-46.275-197.773 54.495-219.566 64.37-157.468 105.995-163.629 119.693z" fill="#ffd04d"/><path d="m753.795 753.285c-3.692 0-7.171-.433-10.252-1.362-8.64-2.607-198.716-115.826-370.822-219.935-69.202-41.86-168.452-102.174-248.295-151.789-113.596-70.59-115.551-74.628-116.385-76.352-7.457-15.401-11.22-51.524-4.713-65.992 4.162-9.253 55.074-46.639 76.771-62.282 34.756-25.061 76.181-53.258 88.107-58.662 13.695-6.206 85.472-27.293 213.336-62.677l6.594-1.825c17.613-4.889 90.988 9.575 121.714 16.021 54.428 11.416 105.973 24.779 117.347 30.423 12.206 6.056 52.919 48.832 87.855 88.539 32.562 37.01 72.01 85.016 76.022 98.508 6.637 22.315 46.074 206.215 47.852 230.454.919 12.529-7.408 66.787-15.534 111.896-2.855 15.852-17.451 95.41-24.41 105.022-8.333 11.513-28.836 20.013-45.187 20.013zm-741.307-451.727c6.163 7.866 145.875 94.938 364.938 227.433 184.667 111.691 359.862 215.668 367.565 218.146 14.777 4.452 40.917-4.332 49.941-16.796 3.973-5.489 13.433-46.872 23.539-102.977 9.711-53.911 16.216-100.444 15.468-110.646-1.611-21.968-39.918-203.372-47.658-229.394-3.064-10.305-33.198-49.137-74.983-96.631-40.942-46.534-76.439-82.459-86.323-87.363-10.87-5.391-62.975-18.853-116.152-30.006-63.245-13.267-107.861-19.282-119.352-16.097l-6.596 1.826c-127.615 35.313-199.146 56.312-212.606 62.412-23.084 10.46-156.749 105.917-162.382 118.441-5.739 12.76-2.156 47.552 4.601 61.652zm.053.109h.01zm-6.933-62.787h.01z" fill="#ffd04d"/><path d="m615.736 126.134c11.33 5.401 146.348 158.47 151.412 169.117 5.064 10.648 44.823 94.239 44.823 94.239-10.009-47.219-20.007-91.831-23.293-102.878-7.148-24.034-139.997-174.309-162.592-185.52s-209.642-53.94-237.283-46.275c-15.465 4.289-75.536 20.838-129.276 36.315 0 0 124.484-9.019 137.267-10.064 12.785-1.045 207.612 39.665 218.942 45.066z" fill="#ffde8a"/><path d="m811.971 391.99c-.941 0-1.833-.534-2.258-1.426l-44.823-94.238c-2.215-4.658-34.266-42.407-72.967-85.939-41.68-46.883-72.729-79.834-77.263-81.995-4.859-2.316-51.443-12.961-108.357-24.76-59.086-12.248-104.021-20.497-109.304-20.072-12.649 1.034-136.046 9.976-137.291 10.065-1.272.09-2.417-.795-2.642-2.055s.54-2.486 1.77-2.841c47.81-13.769 100.222-28.273 122.603-34.467l6.696-1.854c17.623-4.886 90.989 9.576 121.715 16.021 54.428 11.416 105.973 24.779 117.348 30.423 12.205 6.056 52.919 48.832 87.854 88.539 32.562 37.01 72.01 85.016 76.022 98.508 3.59 12.071 14.311 60.466 23.342 103.071.263 1.24-.444 2.48-1.644 2.887-.264.091-.534.133-.801.133zm-414.697-313.437c12.056 0 93.523 16.758 110.044 20.183 48.368 10.026 103.263 22.171 109.494 25.142 7.88 3.757 62.344 64.622 78.849 83.188 27.933 31.419 70.623 80.547 73.746 87.112l35.665 74.984c-8.784-40.771-16.191-73.104-18.789-81.836-3.064-10.305-33.198-49.137-74.983-96.631-40.942-46.534-76.439-82.459-86.323-87.363-10.872-5.393-62.977-18.854-116.154-30.008-63.245-13.266-107.864-19.282-119.353-16.097l-6.699 1.854c-18.783 5.198-58.729 16.253-99.34 27.81 36.875-2.679 104.021-7.567 113.159-8.313.195-.017.425-.025.684-.025z" fill="#ffde8a"/><g fill="#d3a32d"><path d="m32.148 292.544c-10.271-6.908-29.622-35.118-29.622-35.118-.319 15.827 2.951 35.388 7.765 45.331 7.092 14.648 718.18 442.005 733.974 446.771s43.078-4.442 52.692-17.722c.726-1.003 1.578-2.957 2.53-5.711 0 0-34.008-2.888-48.01-7.124-14.002-4.235-709.058-419.519-719.329-426.427z"/><path d="m753.795 753.285c-3.692 0-7.171-.433-10.252-1.362-8.64-2.607-198.716-115.826-370.822-219.935-69.202-41.86-168.452-102.174-248.295-151.789-113.596-70.59-115.551-74.628-116.385-76.352-4.899-10.12-8.345-30.098-8.014-46.472.022-1.086.743-2.033 1.783-2.345 1.041-.311 2.164.085 2.778.981.191.278 19.199 27.895 28.956 34.458 4.869 3.274 173.921 104.505 357.391 213.691 223.187 132.822 354.869 210.247 361.281 212.422 13.576 4.107 47.146 6.993 47.483 7.021.769.065 1.464.481 1.884 1.129.421.646.519 1.45.267 2.18-1.084 3.133-1.995 5.153-2.869 6.359-8.333 11.514-28.835 20.014-45.186 20.014zm-741.307-451.727c6.146 7.857 145.861 94.93 364.938 227.433 184.667 111.691 359.862 215.668 367.566 218.146 14.777 4.452 40.916-4.332 49.94-16.796.196-.271.541-.848 1.053-2.052-8.946-.844-33.572-3.397-45.231-6.925-7.756-2.347-200.931-116.83-361.618-212.456-171.298-101.94-352.911-210.61-358.382-214.29-7.465-5.021-19.138-20.278-25.604-29.177.657 13.663 3.521 28.155 7.338 36.117z"/><ellipse cx="306.805" cy="266.922" rx="18.976" ry="36.907" transform="matrix(.3642 -.9313 .9313 .3642 -53.5225 455.4443)"/><path d="m322.064 291.629c-7.168 0-15.199-1.624-23.081-4.706-9.544-3.732-17.799-9.186-23.245-15.354-5.838-6.615-7.839-13.362-5.634-18.998 4.385-11.217 23.941-13.698 44.522-5.65 20.58 8.048 33.266 23.138 28.879 34.354-2.204 5.638-8.251 9.237-17.028 10.137-1.425.145-2.9.217-4.413.217zm-30.671-44.415c-8.376 0-14.786 2.456-16.632 7.177-1.466 3.749.257 8.804 4.727 13.868 4.928 5.585 12.499 10.56 21.317 14.008s17.755 4.931 25.164 4.17c6.72-.689 11.415-3.234 12.881-6.983 3.252-8.318-8.674-21.084-26.044-27.877-7.51-2.937-15.033-4.363-21.413-4.363z"/><ellipse cx="323.298" cy="312.524" rx="29.902" ry="44.906" transform="matrix(.4353 -.9003 .9003 .4353 -98.8006 467.5251)"/><path d="m336.366 348.245c-8.583 0-18.024-2.125-27.175-6.55-23.532-11.38-36.35-33.724-28.572-49.808 3.853-7.969 12.005-13.188 22.955-14.698 10.578-1.46 22.592.731 33.829 6.164 11.237 5.434 20.414 13.491 25.839 22.688 5.615 9.521 6.586 19.151 2.733 27.119-4.753 9.832-16.119 15.085-29.609 15.085zm-26.197-66.5c-2.015 0-3.99.131-5.911.396-9.239 1.273-16.035 5.508-19.137 11.921-6.577 13.603 5.197 32.951 26.248 43.13 21.05 10.18 43.527 7.394 50.106-6.208 3.101-6.414 2.2-14.37-2.539-22.403-4.93-8.356-13.35-15.718-23.709-20.727-8.289-4.008-16.988-6.109-25.058-6.109z"/><ellipse cx="640.537" cy="544.837" rx="22.048" ry="35.641" transform="matrix(.4906 -.8714 .8714 .4906 -148.477 835.6839)"/><path d="m653.415 573.316c-7.97 0-16.754-2.49-24.921-7.088-8.695-4.896-15.711-11.63-19.755-18.963-4.257-7.718-4.767-15.226-1.437-21.141 6.753-11.994 26.642-13.17 45.279-2.679 8.695 4.896 15.711 11.63 19.755 18.963 4.257 7.719 4.767 15.227 1.437 21.141-3.33 5.915-10.014 9.372-18.82 9.735-.509.021-1.022.032-1.538.032zm-25.78-51.9c-7.313 0-13.295 2.399-15.976 7.161-2.449 4.35-1.931 10.128 1.458 16.273 3.602 6.529 9.934 12.574 17.83 17.02s16.35 6.729 23.799 6.418c7.011-.289 12.221-2.843 14.669-7.192 2.448-4.349 1.931-10.128-1.458-16.272-3.601-6.53-9.933-12.575-17.83-17.021-7.58-4.268-15.624-6.387-22.492-6.387z"/><ellipse cx="620.95" cy="498.6" rx="30.689" ry="39.752" transform="matrix(.4906 -.8714 .8714 .4906 -118.1648 795.0638)"/><path d="m629.125 534.205c-8.173 0-16.667-2.298-24.458-6.685-20.301-11.431-29.513-33.703-20.535-49.649 4.41-7.833 12.44-12.963 22.61-14.445 9.93-1.445 20.759.775 30.49 6.254s17.246 13.586 21.159 22.827c4.008 9.464 3.786 18.989-.625 26.822-4.41 7.833-12.44 12.963-22.61 14.445-1.978.289-3.995.431-6.031.431zm-16.338-66.21c-1.799 0-3.577.126-5.323.38-8.603 1.253-15.341 5.497-18.974 11.95-7.625 13.544.733 32.762 18.631 42.839 8.773 4.94 18.474 6.948 27.316 5.663 8.603-1.253 15.341-5.497 18.974-11.95 3.633-6.452 3.767-14.415.377-22.42-3.484-8.228-10.235-15.479-19.008-20.419-7.041-3.965-14.681-6.043-21.993-6.043z"/><ellipse cx="203.013" cy="286.131" rx="22.817" ry="29.556" transform="matrix(.4906 -.8714 .8714 .4906 -145.9161 322.6529)"/><path d="m209.092 313.245c-6.187 0-12.611-1.736-18.5-5.052-15.402-8.673-22.36-25.624-15.511-37.788 6.848-12.165 24.952-15.005 40.353-6.335 15.402 8.673 22.36 25.624 15.511 37.788-3.378 6.001-9.514 9.929-17.276 11.06-1.503.218-3.033.327-4.577.327zm-12.213-49.233c-7.561 0-14.181 3.055-17.441 8.846-5.496 9.762.608 23.658 13.608 30.978 6.4 3.604 13.47 5.071 19.903 4.135 6.195-.902 11.039-3.944 13.64-8.565 5.496-9.762-.608-23.658-13.608-30.978-5.288-2.978-10.917-4.416-16.102-4.416z"/><ellipse cx="585.556" cy="227.522" rx="25.136" ry="35.843" transform="matrix(.4906 -.8714 .8714 .4906 100.0175 626.1378)"/><path d="m595.44 258.114c-7.7 0-15.889-2.258-23.442-6.51-18.423-10.373-27.329-29.615-19.853-42.894s28.547-15.64 46.97-5.27c8.786 4.947 15.712 12.031 19.501 19.948 3.932 8.215 4.057 16.363.351 22.944-3.705 6.581-10.737 10.7-19.799 11.599-1.226.122-2.471.183-3.728.183zm-19.854-56.206c-8.471 0-15.648 3.153-19.084 9.256-6.123 10.876 1.929 27.063 17.95 36.083 7.898 4.447 16.499 6.471 24.224 5.71 7.394-.733 13.053-3.956 15.936-9.076 2.882-5.12 2.704-11.63-.504-18.332-3.35-6.999-9.545-13.303-17.445-17.75-7.033-3.96-14.451-5.891-21.077-5.891z"/><ellipse cx="643.236" cy="312.236" rx="18.74" ry="31.5" transform="matrix(.4906 -.8714 .8714 .4906 55.5811 719.5516)"/><path d="m655.422 337.263c-6.886 0-14.852-2.153-22.606-6.519-7.718-4.346-13.989-10.257-17.658-16.645-3.904-6.798-4.455-13.384-1.549-18.545 5.842-10.377 23.434-11.18 40.047-1.827 16.613 9.354 25.05 24.811 19.206 35.189-3.115 5.536-9.572 8.347-17.44 8.347zm-24.42-44.985c-6.028 0-10.884 1.909-13.036 5.73-2.006 3.562-1.463 8.394 1.528 13.602 3.227 5.619 8.829 10.867 15.775 14.777 13.697 7.713 28.918 7.747 33.237.077 4.318-7.671-3.605-20.667-17.303-28.379-6.872-3.87-14.13-5.807-20.201-5.807zm39.683 35.413h.01z"/><ellipse cx="566.655" cy="188.034" rx="18.74" ry="20.895" transform="matrix(.4906 -.8714 .8714 .4906 124.7984 589.5532)"/><path d="m568.506 209.807c-4.103 0-8.344-1.054-12.271-3.265-5.401-3.041-9.422-7.803-11.323-13.407-1.933-5.702-1.451-11.59 1.358-16.578 2.809-4.989 7.593-8.454 13.471-9.759 5.778-1.278 11.935-.312 17.335 2.729 5.401 3.041 9.422 7.802 11.323 13.407 1.933 5.701 1.451 11.589-1.358 16.578-3.739 6.64-10.895 10.295-18.535 10.295zm-3.707-38.56c-1.338 0-2.67.143-3.976.433-4.473.992-8.094 3.596-10.197 7.33s-2.45 8.181-.979 12.519c1.504 4.437 4.715 8.221 9.041 10.656 8.839 4.979 19.603 2.677 23.996-5.126 2.103-3.734 2.45-8.181.979-12.52-1.504-4.437-4.715-8.221-9.041-10.655-3.09-1.74-6.475-2.637-9.823-2.637z"/></g></svg>