<svg xmlns="http://www.w3.org/2000/svg" viewBox="0 0 1500 1500" width="1500" height="1500"><g transform="translate(178.0 247.0) rotate(0.0 582.5 543.5) scale(1.0965645057600226 1.0980463462432066)"><svg width="1062.409" height="989.94" viewBox="0 0 1062.409 989.94"><g fill="#1e1e1e"><ellipse cx="531.205" cy="494.97" rx="480.787" ry="539.132" transform="matrix(.4353 -.9003 .9003 .4353 -145.6536 757.7175)"/><path d="M578.499 989.965c-17.046 0-34.204-.774-51.449-2.325-71.054-6.393-140.442-25.766-206.238-57.582-65.796-31.817-124.069-74.176-173.201-125.901-47.467-49.973-84.45-106.54-109.92-168.13C12.209 574.409-.467 510.869.013 447.17c.498-65.974 15.16-129.224 43.578-187.992 28.418-58.77 68.892-109.537 120.296-150.896 49.632-39.931 107.309-69.451 171.429-87.739C399.408 2.261 466.711-3.874 535.359 2.3c71.053 6.393 140.442 25.766 206.238 57.582 65.796 31.817 124.069 74.176 173.201 125.901 47.467 49.973 84.45 106.54 109.92 168.13 25.481 61.617 38.158 125.157 37.678 188.856-.498 65.974-15.16 129.224-43.578 187.992-28.418 58.77-68.892 109.537-120.296 150.896-49.631 39.931-107.309 69.451-171.429 87.739-47.991 13.689-97.787 20.569-148.594 20.569zM483.913 4.975c-50.349 0-99.678 6.815-147.227 20.377-63.474 18.104-120.558 47.316-169.666 86.826-50.822 40.89-90.836 91.08-118.929 149.177C19.999 319.45 5.505 381.98 5.013 447.208c-.475 63.027 12.073 125.912 37.298 186.907 25.235 61.021 61.883 117.072 108.925 166.598 48.715 51.286 106.501 93.29 171.753 124.843 65.251 31.554 134.058 50.766 204.509 57.104 68.031 6.125 134.724.042 198.224-18.071 63.474-18.104 120.558-47.316 169.666-86.826 50.822-40.89 90.836-91.08 118.93-149.177 28.093-58.096 42.587-120.626 43.079-185.854.475-63.027-12.074-125.912-37.298-186.907-25.235-61.021-61.883-117.072-108.925-166.598-48.716-51.287-106.502-93.29-171.754-124.843C674.169 32.83 605.362 13.618 534.911 7.28a568.99 568.99 0 0 0-50.998-2.305z"/></g></svg></g><g transform="translate(191.0 225.0) rotate(0.0 577.5 538.0) scale(1.0871519348951297 1.0869345616906074)"><svg width="1062.409" height="989.94" viewBox="0 0 1062.409 989.94"><ellipse cx="531.205" cy="494.97" fill="#3054e5" rx="480.787" ry="539.132" transform="matrix(.4353 -.9003 .9003 .4353 -145.6536 757.7175)"/><path d="M578.499 989.965c-17.046 0-34.204-.774-51.449-2.325-71.054-6.393-140.442-25.766-206.238-57.582-65.796-31.817-124.069-74.176-173.202-125.901-47.467-49.973-84.45-106.54-109.92-168.13C12.209 574.409-.468 510.869.013 447.17c.498-65.974 15.159-129.224 43.578-187.992 28.418-58.77 68.892-109.537 120.296-150.896 49.632-39.931 107.309-69.451 171.429-87.739C399.409 2.261 466.712-3.874 535.359 2.3c71.053 6.393 140.442 25.766 206.238 57.582 65.796 31.817 124.069 74.176 173.201 125.901 47.467 49.973 84.45 106.54 109.92 168.13 25.481 61.617 38.158 125.157 37.677 188.856-.498 65.974-15.159 129.224-43.578 187.992-28.418 58.77-68.892 109.537-120.296 150.896-49.631 39.931-107.308 69.451-171.429 87.739-47.99 13.689-97.786 20.569-148.593 20.569zM483.913 4.975c-50.349 0-99.678 6.815-147.226 20.377-63.474 18.104-120.558 47.316-169.666 86.826-50.822 40.89-90.836 91.08-118.929 149.177C19.999 319.45 5.505 381.98 5.013 447.208c-.476 63.027 12.073 125.912 37.298 186.907 25.235 61.021 61.883 117.072 108.925 166.598 48.715 51.286 106.501 93.29 171.753 124.843 65.251 31.554 134.058 50.766 204.509 57.104 68.033 6.125 134.724.042 198.225-18.071 63.474-18.104 120.558-47.316 169.666-86.826 50.823-40.89 90.836-91.08 118.93-149.177l2.25 1.089-2.25-1.089c28.093-58.096 42.587-120.626 43.079-185.854.475-63.027-12.074-125.912-37.298-186.907-25.235-61.021-61.882-117.072-108.925-166.598-48.717-51.287-106.503-93.29-171.755-124.843C674.169 32.83 605.362 13.618 534.911 7.28a568.99 568.99 0 0 0-50.998-2.305z" fill="#3054e5"/><g fill="#f6f6f6"><ellipse cx="531.205" cy="494.97" rx="345.496" ry="387.423" transform="matrix(.4353 -.9003 .9003 .4353 -145.6536 757.7175)"/><path d="M564.747 851.46c-62.512 0-125.801-14.556-185.038-43.2-93.717-45.318-166.093-120.486-203.796-211.657-18.347-44.365-27.475-90.118-27.128-135.986.358-47.515 10.918-93.068 31.385-135.394 20.467-42.327 49.616-78.891 86.638-108.676 35.739-28.755 77.27-50.011 123.438-63.179C485.12 126.31 588.983 136.362 682.7 181.68s166.093 120.486 203.797 211.657c18.347 44.365 27.474 90.118 27.128 135.986-.358 47.515-10.918 93.068-31.386 135.394l-2.25-1.088 2.25 1.088c-20.467 42.327-49.616 78.891-86.638 108.676-35.739 28.755-77.27 50.011-123.438 63.179-34.906 9.955-71.03 14.888-107.416 14.888zm-67.085-707.98c-35.93 0-71.586 4.868-106.046 14.696-45.521 12.984-86.459 33.934-121.674 62.267-36.439 29.317-65.128 65.303-85.271 106.956-20.142 41.654-30.534 86.487-30.887 133.255-.341 45.197 8.659 90.294 26.749 134.038 37.234 90.035 108.742 164.283 201.353 209.066 58.549 28.312 121.101 42.7 182.861 42.702 35.93.001 71.586-4.868 106.046-14.696 45.522-12.984 86.459-33.934 121.675-62.267 36.439-29.317 65.128-65.303 85.271-106.956v-.001c20.142-41.653 30.534-86.486 30.887-133.254.341-45.197-8.659-90.294-26.749-134.038-37.234-90.035-108.742-164.283-201.353-209.066-58.549-28.313-121.102-42.702-182.862-42.702z"/></g></svg></g><g transform="translate(146.0 434.0) rotate(0.0 498.5 409.5) scale(1.085232671925564 1.0872133619716926)"><svg width="918.697" height="753.302" viewBox="0 0 918.697 753.302"><path d="M61.932 265.207c-3.966-16.92 71.302-216.205 89.143-225.463s72.04 14.092 84.039 6.639 56.175-42.808 70.621-43.867c14.446-1.059 65.629 51.826 81.912 57.139C403.93 64.967 542.912 14.1 557.424 16.597s29.836 40.63 42.078 50.114c12.243 9.483 99.248 23.424 116.983 25.696s60.046 52.315 67.06 66.573-3.282 88.99 7.368 100.5 99.015 104.105 106.684 118.757-14.421 40.637-13.036 59.533 30.596 111.688 31.62 125.657-48.431 47.817-59.82 58.707-1.588 58.318-7.029 70.357c-5.44 12.039-58.379 15.921-70.053 16.776-11.673.856-713.381-427.14-717.347-444.06z" fill="#aef45d"/><path d="M779.236 711.771c-1.916 0-9.773-2.61-117.689-67.001-67.932-40.533-157.282-94.746-245.14-148.737-95.482-58.677-182.031-112.686-243.704-152.076-111.586-71.272-112.64-75.766-113.206-78.18-2.632-11.228 22.722-81.492 36.497-117.077 9.453-24.42 41.278-104.609 53.929-111.174 10.315-5.356 30.152-1.021 49.335 3.168 14.649 3.2 29.799 6.511 34.537 3.564 3.111-1.933 8.648-5.938 15.06-10.576C272.768 16.381 295.1.788 305.552.023c8.397-.625 24.399 12.079 47.801 31.522 13.924 11.568 28.322 23.531 35.069 25.732 8.196 2.673 58.601-12.716 95.407-23.952 41.474-12.661 67.239-20.358 74.019-19.193 9.663 1.663 18.704 15.864 27.448 29.599 5.693 8.941 11.07 17.388 15.737 21.003 11.029 8.542 92.539 22.215 115.77 25.192 19.116 2.449 62.235 54.229 68.985 67.949 3.425 6.961 3.087 24.997 2.695 45.881-.404 21.579-.908 48.435 4.265 54.024 1.613 1.744 5.014 5.352 9.647 10.269 42.252 44.833 91.509 97.741 97.416 109.027 4.758 9.09-.172 20.94-5.391 33.486-3.907 9.393-7.948 19.105-7.367 27.023.727 9.911 9.678 42.015 17.576 70.34 7.272 26.083 13.553 48.609 14.044 55.316.788 10.743-20.135 28.219-45.489 48.275-6.539 5.173-12.186 9.639-15.095 12.422-5.875 5.617-5.251 24.948-4.751 40.48.408 12.66.76 23.594-1.728 29.1-4.016 8.886-28.287 15.022-72.139 18.24a2.324 2.324 0 0 1-.235.013zm.285-4.979c-.001-.001-.001-.001 0 0zM64.326 264.442c6.222 9.511 145.194 98.583 354.691 227.326C604.418 605.703 768.78 703.754 779.371 706.753c58.327-4.304 66.554-12.79 67.684-15.292 2.01-4.447 1.642-15.852 1.287-26.88-.587-18.236-1.195-37.095 6.292-44.255 3.08-2.945 8.812-7.479 15.449-12.729 15.469-12.237 44.263-35.015 43.605-43.989-.456-6.209-6.974-29.588-13.875-54.339-8.349-29.945-16.982-60.909-17.746-71.317-.667-9.105 3.605-19.376 7.737-29.309 4.756-11.435 9.249-22.234 5.578-29.248-6.346-12.124-71.934-81.718-96.625-107.916-4.649-4.934-8.06-8.553-9.679-10.302-6.084-6.576-6.166-27.042-5.594-57.515.348-18.538.707-37.707-2.183-43.58-7.073-14.378-49.018-63.132-65.134-65.197-12.007-1.538-104.707-15.751-118.196-26.198-5.356-4.148-10.96-12.951-16.894-22.271C573.299 34.197 564.482 20.347 557 19.06c-5.951-1.009-39.382 9.18-71.711 19.048-53.594 16.361-89.399 26.86-98.418 23.924-7.657-2.498-21.771-14.225-36.714-26.641-16.568-13.765-37.156-30.862-44.241-30.382-9.902.726-37.59 20.757-54.132 32.725-6.755 4.887-12.091 8.746-15.352 10.772-6.463 4.011-21.189.796-38.242-2.928-17.462-3.813-37.252-8.136-45.965-3.615-7.04 3.653-28.245 48.287-51.568 108.541-21.828 56.391-37.683 106.147-36.331 113.938zm.039.194h.01z" fill="#aef45d"/><path d="M745.708 224.74c-57.324 13.634-90.377 78.257-73.828 144.34s76.436 108.601 133.759 94.967c57.324-13.634 90.378-78.257 73.828-144.34-16.549-66.083-76.435-108.601-133.759-94.967zm114.886 99.456c13.54 54.066-13.503 106.938-60.403 118.093s-95.896-23.632-109.437-77.698c-13.54-54.066 13.503-106.938 60.403-118.093s95.896 23.631 109.437 77.698z" fill="#ffa9d8"/><path d="M784.033 469.078c-51.136.003-99.849-40.575-114.578-99.392-8.869-35.414-3.933-72.222 13.543-100.984 14.479-23.833 36.545-40.31 62.132-46.396l.579 2.433-.579-2.433c58.557-13.921 119.909 29.493 136.763 96.792 8.869 35.413 3.933 72.221-13.542 100.984-14.479 23.833-36.545 40.31-62.132 46.396a95.734 95.734 0 0 1-22.186 2.6zm-16.691-244.374a90.81 90.81 0 0 0-21.055 2.468c-24.277 5.773-45.236 21.444-59.016 44.126-16.786 27.629-21.512 63.048-12.965 97.174 16.191 64.655 74.849 106.444 130.755 93.142 24.277-5.773 45.236-21.444 59.016-44.127 16.786-27.629 21.512-63.047 12.965-97.173-14.163-56.554-60.817-95.61-109.7-95.61zm15.173 222.156c-42.043 0-82.083-33.334-94.187-81.662-7.285-29.091-3.228-59.331 11.132-82.967 11.91-19.604 30.064-33.158 51.118-38.166 48.15-11.446 98.591 24.223 112.44 79.523 7.285 29.091 3.228 59.332-11.133 82.968-11.91 19.604-30.064 33.157-51.117 38.165a78.838 78.838 0 0 1-18.253 2.139zm-13.656-199.937a73.82 73.82 0 0 0-17.123 2.007c-19.744 4.695-36.791 17.444-48.002 35.896-13.67 22.502-17.518 51.354-10.555 79.156 11.536 46.063 49.521 77.878 89.309 77.88a73.774 73.774 0 0 0 17.124-2.007c19.743-4.695 36.79-17.443 48.001-35.896 13.671-22.502 17.519-51.354 10.555-79.157-11.535-46.062-49.521-77.879-89.309-77.879z" fill="#ffa9d8"/><path d="M751.157 246.497c-46.9 11.155-73.943 64.027-60.403 118.093s62.537 88.853 109.437 77.698 73.943-64.027 60.403-118.093c-13.541-54.066-62.537-88.852-109.437-77.698zm90.182 82.278c10.47 41.808-10.442 82.691-46.707 91.317-36.266 8.626-74.153-18.273-84.623-60.081-10.47-41.807 10.441-82.691 46.707-91.317 36.266-8.625 74.153 18.274 84.623 60.081z" fill="#f6f6f6"/><path d="M782.515 446.86c-42.043.005-82.083-33.334-94.187-81.662-7.285-29.091-3.228-59.331 11.132-82.967 11.91-19.604 30.064-33.158 51.118-38.166 48.15-11.446 98.591 24.223 112.44 79.523 7.285 29.091 3.228 59.332-11.133 82.968-11.91 19.604-30.064 33.157-51.117 38.165a78.838 78.838 0 0 1-18.253 2.139zm-30.779-197.93c-19.744 4.695-36.791 17.444-48.002 35.896-13.67 22.502-17.518 51.354-10.555 79.156 11.536 46.063 49.521 77.878 89.309 77.88a73.774 73.774 0 0 0 17.124-2.007c19.743-4.695 36.79-17.443 48.001-35.896 13.671-22.502 17.519-51.354 10.555-79.157-13.187-52.657-60.93-86.696-106.432-75.872zm29.232 175.264c-32.766 0-63.961-25.949-73.385-63.575-5.67-22.641-2.509-46.183 8.673-64.588 9.289-15.289 23.452-25.861 39.88-29.77 37.535-8.92 76.843 18.845 87.627 61.906 5.67 22.641 2.508 46.183-8.674 64.588-9.289 15.289-23.452 25.861-39.88 29.77a61.51 61.51 0 0 1-14.241 1.669zm-10.561-154.605c-4.362 0-8.75.499-13.113 1.537-15.118 3.596-28.175 13.362-36.764 27.501-10.493 17.271-13.444 39.423-8.096 60.776 10.123 40.419 46.739 66.56 81.619 58.256 15.118-3.596 28.175-13.362 36.764-27.5 10.493-17.271 13.444-39.424 8.097-60.777-8.857-35.364-37.994-59.793-68.507-59.793z" fill="#f6f6f6"/><path d="M94.302 115.008c-47.304 11.251-74.581 64.579-60.924 119.111s63.076 89.619 110.38 78.368 74.581-64.579 60.924-119.111c-13.657-54.533-63.076-89.619-110.38-78.368zm94.805 82.072c11.174 44.616-11.143 88.247-49.846 97.452s-79.135-19.501-90.309-64.118c-11.174-44.616 11.143-88.247 49.846-97.452s79.136 19.502 90.309 64.118z" fill="#ffa9d8"/><path d="M125.93 317.077c-42.396 0-82.773-33.616-94.978-82.351-7.347-29.336-3.255-59.832 11.226-83.667 12.01-19.768 30.315-33.435 51.544-38.484 48.551-11.549 99.417 24.426 113.384 80.193 7.347 29.336 3.255 59.831-11.226 83.666-12.01 19.769-30.315 33.436-51.545 38.485a79.442 79.442 0 0 1-18.405 2.158zm-13.773-201.663c-5.748 0-11.527.657-17.276 2.025-19.919 4.737-37.118 17.599-48.429 36.216-13.792 22.7-17.673 51.807-10.648 79.855 11.637 46.471 49.958 78.565 90.1 78.568 5.747 0 11.527-.657 17.276-2.025 19.919-4.737 37.119-17.599 48.429-36.216 13.792-22.701 17.673-51.807 10.648-79.855-11.638-46.47-49.959-78.568-90.1-78.568zm12.521 183.327c-34.89.002-68.114-27.642-78.151-67.719-6.04-24.119-2.673-49.195 9.237-68.8 9.89-16.277 24.967-27.532 42.455-31.692 39.966-9.499 81.826 20.077 93.312 65.943 6.04 24.118 2.673 49.194-9.236 68.798-9.89 16.278-24.967 27.533-42.456 31.693a65.456 65.456 0 0 1-15.161 1.777zM113.409 133.75c-4.668 0-9.363.533-14.032 1.645-16.178 3.848-30.149 14.297-39.339 29.424-11.221 18.47-14.377 42.157-8.66 64.988 10.825 43.225 49.993 71.174 87.305 62.292 16.178-3.848 30.149-14.297 39.339-29.424 11.221-18.47 14.377-42.156 8.659-64.987-9.469-37.816-40.633-63.938-73.272-63.938z" fill="#ffa9d8"/><ellipse cx="119.03" cy="213.747" fill="#f6f6f6" rx="72.012" ry="83.297" transform="matrix(.9609 -.2769 .2769 .9609 -54.539 41.324)"/><path d="M124.678 298.741c-34.89 0-68.114-27.642-78.151-67.719-6.04-24.119-2.673-49.195 9.237-68.8 9.89-16.277 24.967-27.532 42.455-31.692 39.966-9.499 81.826 20.077 93.312 65.943 6.04 24.118 2.673 49.194-9.236 68.798-9.89 16.278-24.967 27.533-42.456 31.693a65.456 65.456 0 0 1-15.161 1.777zM113.409 133.75c-4.668 0-9.363.533-14.032 1.645-16.178 3.848-30.149 14.297-39.339 29.424-11.221 18.47-14.377 42.157-8.66 64.988 10.825 43.225 49.993 71.174 87.305 62.292 16.178-3.848 30.149-14.297 39.339-29.424 11.221-18.47 14.377-42.156 8.659-64.987-9.469-37.816-40.633-63.938-73.272-63.938z" fill="#f6f6f6"/><path d="M304.391 89.237c-14.689 52.945 19.035 108.421 75.325 123.91s113.83-14.875 128.519-67.819C522.924 92.383 489.2 36.907 432.91 21.418S319.08 36.293 304.391 89.237zM428.073 38.85c46.054 12.673 73.646 58.061 61.628 101.378s-59.095 68.16-105.149 55.487-73.646-58.061-61.628-101.378 59.095-68.16 105.149-55.487z" fill="#ffa9d8"/><path d="M409.355 219.675c-9.984 0-20.162-1.328-30.302-4.118-29.045-7.992-52.972-26.382-67.375-51.781-13.233-23.338-16.677-50.048-9.697-75.207 15.033-54.187 74.064-85.395 131.591-69.561 29.044 7.991 52.972 26.381 67.375 51.78 13.233 23.339 16.678 50.048 9.697 75.208-12.383 44.635-54.63 73.679-101.289 73.679zM304.391 89.237l2.409.668c-6.623 23.871-3.346 49.23 9.228 71.404 13.743 24.236 36.596 41.79 64.351 49.428 54.875 15.099 111.149-14.544 125.447-66.076 6.623-23.872 3.346-49.23-9.229-71.406C482.854 49.02 460 31.466 432.246 23.829 377.37 8.729 321.097 38.371 306.8 89.905zm104.41 112.274a93.804 93.804 0 0 1-24.912-3.386c-23.88-6.571-43.555-21.693-55.398-42.58-10.887-19.2-13.72-41.175-7.977-61.876 12.366-44.574 60.915-70.25 108.222-57.229 23.881 6.571 43.555 21.693 55.398 42.58 10.887 19.2 13.719 41.175 7.976 61.876-10.187 36.72-44.935 60.615-83.309 60.615zm-4.984-163.458c-36.184 0-68.909 22.44-78.484 56.952-5.386 19.413-2.72 40.037 7.507 58.073 11.184 19.725 29.785 34.01 52.375 40.227 44.655 12.286 90.446-11.822 102.077-53.745 5.386-19.413 2.72-40.037-7.507-58.073-11.184-19.724-29.784-34.01-52.375-40.227a88.87 88.87 0 0 0-23.593-3.207z" fill="#ffa9d8"/><path d="M322.924 94.337c-12.018 43.317 15.574 88.706 61.628 101.378 46.055 12.672 93.131-12.17 105.149-55.487S474.127 51.522 428.073 38.85c-46.054-12.673-93.131 12.17-105.149 55.487zm100.215-37.703c35.612 9.799 56.948 44.896 47.655 78.392s-45.696 52.705-81.308 42.906-56.948-44.896-47.655-78.392c9.294-33.496 45.696-52.706 81.308-42.906z" fill="#f6f6f6"/><path d="M408.801 201.511a93.804 93.804 0 0 1-24.912-3.386c-23.88-6.571-43.555-21.693-55.398-42.58-10.887-19.2-13.72-41.175-7.977-61.876 12.366-44.574 60.915-70.25 108.222-57.229 23.88 6.571 43.555 21.693 55.398 42.58 10.887 19.2 13.719 41.175 7.976 61.876-10.187 36.72-44.935 60.615-83.309 60.615zM325.333 95.005c-5.386 19.413-2.72 40.037 7.507 58.073 11.184 19.725 29.785 34.01 52.375 40.227 44.655 12.286 90.446-11.822 102.077-53.745 5.386-19.413 2.72-40.037-7.507-58.073-11.184-19.724-29.784-34.01-52.375-40.227-44.651-12.283-90.445 11.823-102.077 53.745zm82.904 87.975a73.093 73.093 0 0 1-19.414-2.639c-18.612-5.121-33.947-16.908-43.18-33.191-8.494-14.979-10.703-32.124-6.221-48.278 9.646-34.767 47.5-54.797 84.38-44.648 18.612 5.121 33.947 16.909 43.18 33.192 8.493 14.979 10.702 32.124 6.221 48.278-7.947 28.643-35.045 47.286-64.966 47.286zm-3.854-126.396c-27.733 0-52.808 17.187-60.142 43.623-4.125 14.866-2.082 30.661 5.752 44.477 8.573 15.119 22.834 26.07 40.157 30.837 34.228 9.417 69.325-9.047 78.235-41.163 4.125-14.866 2.082-30.661-5.752-44.476-8.573-15.12-22.834-26.072-40.157-30.839a68.183 68.183 0 0 0-18.093-2.459z" fill="#f6f6f6"/><path d="M5.607 238.88c-6.16 13.698-2.408 49.229 4.683 63.878 7.092 14.648 718.18 442.005 733.974 446.771s43.079-4.442 52.692-17.722c9.614-13.279 41.16-192.296 39.476-215.271s-40.607-205.89-47.755-229.924-139.997-174.309-162.592-185.52-209.643-53.94-237.283-46.275-197.773 54.495-219.566 64.37S11.768 225.182 5.607 238.88z" fill="#ffd04d"/><path d="M753.795 753.285c-3.692 0-7.171-.433-10.252-1.362-8.64-2.607-198.716-115.826-370.822-219.935-69.202-41.86-168.452-102.174-248.295-151.789C10.83 309.609 8.875 305.571 8.041 303.847c-7.457-15.401-11.22-51.524-4.713-65.992 4.162-9.253 55.074-46.639 76.771-62.282 34.756-25.061 76.181-53.258 88.107-58.662 13.695-6.206 85.472-27.293 213.336-62.677l6.594-1.825c17.613-4.889 90.988 9.575 121.714 16.021 54.428 11.416 105.973 24.779 117.347 30.423 12.206 6.056 52.919 48.832 87.855 88.539 32.562 37.01 72.01 85.016 76.022 98.508 6.637 22.315 46.074 206.215 47.852 230.454.919 12.529-7.408 66.787-15.534 111.896-2.855 15.852-17.451 95.41-24.41 105.022-8.333 11.513-28.836 20.013-45.187 20.013zM12.488 301.558c6.163 7.866 145.875 94.938 364.938 227.433 184.667 111.691 359.862 215.668 367.565 218.146 14.777 4.452 40.917-4.332 49.941-16.796 3.973-5.489 13.433-46.872 23.539-102.977 9.711-53.911 16.216-100.444 15.468-110.646-1.611-21.968-39.918-203.372-47.658-229.394-3.064-10.305-33.198-49.137-74.983-96.631-40.942-46.534-76.439-82.459-86.323-87.363-10.87-5.391-62.975-18.853-116.152-30.006-63.245-13.267-107.861-19.282-119.352-16.097l-6.596 1.826c-127.615 35.313-199.146 56.312-212.606 62.412C147.185 131.925 13.52 227.382 7.887 239.906c-5.739 12.76-2.156 47.552 4.601 61.652zm.053.109h.01zM5.608 238.88h.01z" fill="#ffd04d"/><path d="M615.736 126.134c11.33 5.401 146.348 158.47 151.412 169.117l44.823 94.239c-10.009-47.219-20.007-91.831-23.293-102.878-7.148-24.034-139.997-174.309-162.592-185.52s-209.642-53.94-237.283-46.275c-15.465 4.289-75.536 20.838-129.276 36.315 0 0 124.484-9.019 137.267-10.064 12.785-1.045 207.612 39.665 218.942 45.066z" fill="#ffde8a"/><path d="M811.971 391.99a2.502 2.502 0 0 1-2.258-1.426l-44.823-94.238c-2.215-4.658-34.266-42.407-72.967-85.939-41.68-46.883-72.729-79.834-77.263-81.995-4.859-2.316-51.443-12.961-108.357-24.76-59.086-12.248-104.021-20.497-109.304-20.072-12.649 1.034-136.046 9.976-137.291 10.065-1.272.09-2.417-.795-2.642-2.055s.54-2.486 1.77-2.841c47.81-13.769 100.222-28.273 122.603-34.467l6.696-1.854c17.623-4.886 90.989 9.576 121.715 16.021 54.428 11.416 105.973 24.779 117.348 30.423 12.205 6.056 52.919 48.832 87.854 88.539 32.562 37.01 72.01 85.016 76.022 98.508 3.59 12.071 14.311 60.466 23.342 103.071a2.501 2.501 0 0 1-2.445 3.02zM397.274 78.553c12.056 0 93.523 16.758 110.044 20.183 48.368 10.026 103.263 22.171 109.494 25.142 7.88 3.757 62.344 64.622 78.849 83.188 27.933 31.419 70.623 80.547 73.746 87.112l35.665 74.984c-8.784-40.771-16.191-73.104-18.789-81.836-3.064-10.305-33.198-49.137-74.983-96.631-40.942-46.534-76.439-82.459-86.323-87.363C614.105 97.939 562 84.478 508.823 73.324 445.578 60.058 400.959 54.042 389.47 57.227l-6.699 1.854c-18.783 5.198-58.729 16.253-99.34 27.81 36.875-2.679 104.021-7.567 113.159-8.313.195-.017.425-.025.684-.025z" fill="#ffde8a"/><g fill="#d3a32d"><path d="M32.148 292.544c-10.271-6.908-29.622-35.118-29.622-35.118-.319 15.827 2.951 35.388 7.765 45.331 7.092 14.648 718.18 442.005 733.974 446.771s43.078-4.442 52.692-17.722c.726-1.003 1.578-2.957 2.53-5.711 0 0-34.008-2.888-48.01-7.124-14.002-4.235-709.058-419.519-719.329-426.427z"/><path d="M753.795 753.285c-3.692 0-7.171-.433-10.252-1.362-8.64-2.607-198.716-115.826-370.822-219.935-69.202-41.86-168.452-102.174-248.295-151.789C10.83 309.609 8.875 305.571 8.041 303.847c-4.899-10.12-8.345-30.098-8.014-46.472a2.5 2.5 0 0 1 4.561-1.364c.191.278 19.199 27.895 28.956 34.458 4.869 3.274 173.921 104.505 357.391 213.691 223.187 132.822 354.869 210.247 361.281 212.422 13.576 4.107 47.146 6.993 47.483 7.021a2.494 2.494 0 0 1 1.884 1.129c.421.646.519 1.45.267 2.18-1.084 3.133-1.995 5.153-2.869 6.359-8.333 11.514-28.835 20.014-45.186 20.014zM12.488 301.558c6.146 7.857 145.861 94.93 364.938 227.433 184.667 111.691 359.862 215.668 367.566 218.146 14.777 4.452 40.916-4.332 49.94-16.796.196-.271.541-.848 1.053-2.052-8.946-.844-33.572-3.397-45.231-6.925-7.756-2.347-200.931-116.83-361.618-212.456-171.298-101.94-352.911-210.61-358.382-214.29-7.465-5.021-19.138-20.278-25.604-29.177.657 13.663 3.521 28.155 7.338 36.117z"/><ellipse cx="306.805" cy="266.922" rx="18.976" ry="36.907" transform="matrix(.3642 -.9313 .9313 .3642 -53.5225 455.4443)"/><path d="M322.064 291.629c-7.168 0-15.199-1.624-23.081-4.706-9.544-3.732-17.799-9.186-23.245-15.354-5.838-6.615-7.839-13.362-5.634-18.998 4.385-11.217 23.941-13.698 44.522-5.65 20.58 8.048 33.266 23.138 28.879 34.354-2.204 5.638-8.251 9.237-17.028 10.137a43.65 43.65 0 0 1-4.413.217zm-30.671-44.415c-8.376 0-14.786 2.456-16.632 7.177-1.466 3.749.257 8.804 4.727 13.868 4.928 5.585 12.499 10.56 21.317 14.008s17.755 4.931 25.164 4.17c6.72-.689 11.415-3.234 12.881-6.983 3.252-8.318-8.674-21.084-26.044-27.877-7.51-2.937-15.033-4.363-21.413-4.363z"/><ellipse cx="323.298" cy="312.524" rx="29.902" ry="44.906" transform="matrix(.4353 -.9003 .9003 .4353 -98.8006 467.5251)"/><path d="M336.366 348.245c-8.583 0-18.024-2.125-27.175-6.55-23.532-11.38-36.35-33.724-28.572-49.808 3.853-7.969 12.005-13.188 22.955-14.698 10.578-1.46 22.592.731 33.829 6.164 11.237 5.434 20.414 13.491 25.839 22.688 5.615 9.521 6.586 19.151 2.733 27.119-4.753 9.832-16.119 15.085-29.609 15.085zm-26.197-66.5c-2.015 0-3.99.131-5.911.396-9.239 1.273-16.035 5.508-19.137 11.921-6.577 13.603 5.197 32.951 26.248 43.13 21.05 10.18 43.527 7.394 50.106-6.208 3.101-6.414 2.2-14.37-2.539-22.403-4.93-8.356-13.35-15.718-23.709-20.727-8.289-4.008-16.988-6.109-25.058-6.109z"/><ellipse cx="640.537" cy="544.837" rx="22.048" ry="35.641" transform="matrix(.4906 -.8714 .8714 .4906 -148.477 835.6839)"/><path d="M653.415 573.316c-7.97 0-16.754-2.49-24.921-7.088-8.695-4.896-15.711-11.63-19.755-18.963-4.257-7.718-4.767-15.226-1.437-21.141 6.753-11.994 26.642-13.17 45.279-2.679 8.695 4.896 15.711 11.63 19.755 18.963 4.257 7.719 4.767 15.227 1.437 21.141-3.33 5.915-10.014 9.372-18.82 9.735-.509.021-1.022.032-1.538.032zm-25.78-51.9c-7.313 0-13.295 2.399-15.976 7.161-2.449 4.35-1.931 10.128 1.458 16.273 3.602 6.529 9.934 12.574 17.83 17.02s16.35 6.729 23.799 6.418c7.011-.289 12.221-2.843 14.669-7.192 2.448-4.349 1.931-10.128-1.458-16.272-3.601-6.53-9.933-12.575-17.83-17.021-7.58-4.268-15.624-6.387-22.492-6.387z"/><ellipse cx="620.95" cy="498.6" rx="30.689" ry="39.752" transform="matrix(.4906 -.8714 .8714 .4906 -118.1648 795.0638)"/><path d="M629.125 534.205c-8.173 0-16.667-2.298-24.458-6.685-20.301-11.431-29.513-33.703-20.535-49.649 4.41-7.833 12.44-12.963 22.61-14.445 9.93-1.445 20.759.775 30.49 6.254s17.246 13.586 21.159 22.827c4.008 9.464 3.786 18.989-.625 26.822-4.41 7.833-12.44 12.963-22.61 14.445a41.73 41.73 0 0 1-6.031.431zm-16.338-66.21c-1.799 0-3.577.126-5.323.38-8.603 1.253-15.341 5.497-18.974 11.95-7.625 13.544.733 32.762 18.631 42.839 8.773 4.94 18.474 6.948 27.316 5.663 8.603-1.253 15.341-5.497 18.974-11.95 3.633-6.452 3.767-14.415.377-22.42-3.484-8.228-10.235-15.479-19.008-20.419-7.041-3.965-14.681-6.043-21.993-6.043z"/><ellipse cx="203.013" cy="286.131" rx="22.817" ry="29.556" transform="matrix(.4906 -.8714 .8714 .4906 -145.9161 322.6529)"/><path d="M209.092 313.245c-6.187 0-12.611-1.736-18.5-5.052-15.402-8.673-22.36-25.624-15.511-37.788 6.848-12.165 24.952-15.005 40.353-6.335 15.402 8.673 22.36 25.624 15.511 37.788-3.378 6.001-9.514 9.929-17.276 11.06a31.89 31.89 0 0 1-4.577.327zm-12.213-49.233c-7.561 0-14.181 3.055-17.441 8.846-5.496 9.762.608 23.658 13.608 30.978 6.4 3.604 13.47 5.071 19.903 4.135 6.195-.902 11.039-3.944 13.64-8.565 5.496-9.762-.608-23.658-13.608-30.978-5.288-2.978-10.917-4.416-16.102-4.416z"/><ellipse cx="585.556" cy="227.522" rx="25.136" ry="35.843" transform="matrix(.4906 -.8714 .8714 .4906 100.0175 626.1378)"/><path d="M595.44 258.114c-7.7 0-15.889-2.258-23.442-6.51-18.423-10.373-27.329-29.615-19.853-42.894s28.547-15.64 46.97-5.27c8.786 4.947 15.712 12.031 19.501 19.948 3.932 8.215 4.057 16.363.351 22.944-3.705 6.581-10.737 10.7-19.799 11.599a37.663 37.663 0 0 1-3.728.183zm-19.854-56.206c-8.471 0-15.648 3.153-19.084 9.256-6.123 10.876 1.929 27.063 17.95 36.083 7.898 4.447 16.499 6.471 24.224 5.71 7.394-.733 13.053-3.956 15.936-9.076 2.882-5.12 2.704-11.63-.504-18.332-3.35-6.999-9.545-13.303-17.445-17.75-7.033-3.96-14.451-5.891-21.077-5.891z"/><ellipse cx="643.236" cy="312.236" rx="18.74" ry="31.5" transform="matrix(.4906 -.8714 .8714 .4906 55.5811 719.5516)"/><path d="M655.422 337.263c-6.886 0-14.852-2.153-22.606-6.519-7.718-4.346-13.989-10.257-17.658-16.645-3.904-6.798-4.455-13.384-1.549-18.545 5.842-10.377 23.434-11.18 40.047-1.827 16.613 9.354 25.05 24.811 19.206 35.189-3.115 5.536-9.572 8.347-17.44 8.347zm-24.42-44.985c-6.028 0-10.884 1.909-13.036 5.73-2.006 3.562-1.463 8.394 1.528 13.602 3.227 5.619 8.829 10.867 15.775 14.777 13.697 7.713 28.918 7.747 33.237.077 4.318-7.671-3.605-20.667-17.303-28.379-6.872-3.87-14.13-5.807-20.201-5.807zm39.683 35.413h.01z"/><ellipse cx="566.655" cy="188.034" rx="18.74" ry="20.895" transform="matrix(.4906 -.8714 .8714 .4906 124.7984 589.5532)"/><path d="M568.506 209.807c-4.103 0-8.344-1.054-12.271-3.265-5.401-3.041-9.422-7.803-11.323-13.407-1.933-5.702-1.451-11.59 1.358-16.578 2.809-4.989 7.593-8.454 13.471-9.759 5.778-1.278 11.935-.312 17.335 2.729 5.401 3.041 9.422 7.802 11.323 13.407 1.933 5.701 1.451 11.589-1.358 16.578-3.739 6.64-10.895 10.295-18.535 10.295zm-3.707-38.56c-1.338 0-2.67.143-3.976.433-4.473.992-8.094 3.596-10.197 7.33s-2.45 8.181-.979 12.519c1.504 4.437 4.715 8.221 9.041 10.656 8.839 4.979 19.603 2.677 23.996-5.126 2.103-3.734 2.45-8.181.979-12.52-1.504-4.437-4.715-8.221-9.041-10.655-3.09-1.74-6.475-2.637-9.823-2.637z"/></g></svg></g><g transform="translate(798.0 210.0) rotate(-10.95751180689472 132.5 127.0) scale(1.1990461926889855 1.1976273775732484)"><svg width="221.009" height="212.086" viewBox="0 0 221.009 212.086"><ellipse cx="110.505" cy="106.043" fill="#ffd04d" rx="102.349" ry="109.086" transform="matrix(.4112 -.9115 .9115 .4112 -31.597 163.1694)"/><path d="M115.486 212.053c-15.996 0-32.392-3.352-48.094-10.435-56.087-25.3-82.376-88.758-58.604-141.459C32.561 7.46 97.532-14.833 153.618 10.467c27.143 12.244 48.191 33.682 59.268 60.364 11.101 26.738 10.864 55.538-.664 81.095-17.118 37.945-55.597 60.127-96.736 60.127zM11.067 61.188l2.279 1.028c-22.639 50.187 2.529 110.677 56.102 134.844 53.576 24.17 115.577 2.996 138.216-47.19 10.954-24.283 11.169-51.672.604-77.121-10.588-25.504-30.727-46.004-56.706-57.723C97.989-9.143 35.985 12.029 13.346 62.216z" fill="#ffd04d"/><ellipse cx="110.505" cy="106.043" fill="#f6f6f6" rx="89.305" ry="95.184" transform="matrix(.7556 -.655 .655 .7556 -42.4542 98.3006)"/><path d="M116.474 201.261a95.78 95.78 0 0 1-9.854-.511c-25.156-2.602-48.412-14.879-65.483-34.572C5.854 125.479 8.269 65.392 46.519 32.233 65.07 16.15 89.177 8.726 114.39 11.336c25.156 2.601 48.412 14.879 65.483 34.571 35.282 40.699 32.868 100.787-5.382 133.945-16.118 13.974-36.429 21.409-58.017 21.409zM104.548 15.825c-20.39 0-39.556 7.009-54.754 20.185-36.167 31.354-38.355 88.277-4.879 126.893 16.236 18.729 38.333 30.404 62.219 32.874 23.828 2.46 46.585-4.533 64.082-19.701 36.167-31.354 38.355-88.277 4.879-126.893-16.236-18.729-38.333-30.403-62.219-32.873a90.608 90.608 0 0 0-9.328-.485z" fill="#f6f6f6"/><g fill="#ffd04d"><path d="M100.586 98.704 36.122 84.163c.685-7.238 2.641-14.134 5.782-20.385 3.225-6.419 7.65-12.058 13.07-16.658z"/><path d="M100.587 101.204a2.47 2.47 0 0 1-.551-.062l-64.464-14.54a2.498 2.498 0 0 1-1.938-2.674c.716-7.568 2.748-14.726 6.037-21.271 3.388-6.742 7.993-12.61 13.686-17.441a2.502 2.502 0 0 1 3.491.25l45.612 51.583a2.5 2.5 0 0 1-1.873 4.155zM38.859 82.218l54.728 12.345-38.823-43.907C50.42 54.72 46.852 59.502 44.139 64.9c-2.693 5.36-4.466 11.176-5.28 17.318zm69.043 10.636L67.727 39.241a56.764 56.764 0 0 1 18.614-9.962c6.956-2.184 14.307-3.025 21.714-2.482z"/><path d="M107.902 95.355c-.772 0-1.52-.358-2.001-1.001L65.727 40.74a2.5 2.5 0 0 1 .432-3.446 59.049 59.049 0 0 1 19.433-10.399c7.278-2.286 14.896-3.162 22.645-2.591a2.5 2.5 0 0 1 2.317 2.499l-.153 66.058a2.5 2.5 0 0 1-2.499 2.494zM71.207 39.716l34.211 45.656.13-56.205c-6.312-.204-12.513.63-18.459 2.497a54.042 54.042 0 0 0-15.882 8.052zm46.618 55.014 5.923-66.186a65.754 65.754 0 0 1 21.38 5.932c6.92 3.259 13.38 10.18 18.753 15.594z"/><path d="M117.825 97.23a2.5 2.5 0 0 1-2.49-2.722l5.923-66.186A2.503 2.503 0 0 1 124 26.057a68.072 68.072 0 0 1 22.193 6.157c6.706 3.158 12.709 9.248 18.006 14.621l1.456 1.474a2.499 2.499 0 0 1-.034 3.556l-46.057 44.66a2.493 2.493 0 0 1-1.739.705zm8.184-65.894-5.094 56.915 39.415-38.22c-4.928-4.997-10.488-10.572-16.267-13.294a63.055 63.055 0 0 0-18.054-5.401zm-.482 71.6 47.982-40.247c5.355 5.44 10.103 11.467 12.903 18.316 2.967 7.258 2.133 15.742 2.248 23.697z"/><path d="m188.66 107.203-.07-.001-63.133-1.767a2.499 2.499 0 0 1-1.537-4.414l47.982-40.247a2.5 2.5 0 0 1 3.388.161c6.464 6.566 10.859 12.822 13.435 19.124 2.565 6.275 2.502 13.178 2.441 19.854a203.839 203.839 0 0 0-.007 4.754 2.496 2.496 0 0 1-.744 1.815 2.489 2.489 0 0 1-1.755.721zm-56.483-6.581 53.973 1.51c.003-.752.01-1.508.017-2.265.057-6.181.115-12.572-2.069-17.915-2.112-5.168-5.646-10.368-10.773-15.846zm-9.839 12.364 64.951 10.087c-.615 7.249-2.897 18.023-5.976 24.308-3.161 6.453-7.529 12.138-12.9 16.791z"/><path d="M168.414 166.672a2.492 2.492 0 0 1-1.859-.827l-46.074-51.187a2.5 2.5 0 0 1 2.242-4.143l64.95 10.087a2.5 2.5 0 0 1 2.107 2.682c-.637 7.51-2.979 18.576-6.222 25.197-3.32 6.777-7.865 12.692-13.509 17.581a2.49 2.49 0 0 1-1.635.61zm-39.518-50.138 39.694 44.098c4.301-4.106 7.819-8.925 10.478-14.351 2.627-5.362 4.667-14.348 5.489-21.104zm-14.57 3.273 38.214 54.928a57.068 57.068 0 0 1-19.03 9.234c-7.053 1.918-14.451 2.481-21.851 1.664z"/><path d="M118.26 188.498a62.87 62.87 0 0 1-6.876-.38 2.501 2.501 0 0 1-2.224-2.587l2.667-65.826a2.502 2.502 0 0 1 1.798-2.299 2.502 2.502 0 0 1 2.752.973l38.214 54.928a2.502 2.502 0 0 1-.563 3.437 59.396 59.396 0 0 1-19.863 9.638 60.567 60.567 0 0 1-15.905 2.116zm-4.008-5.14c6.317.44 12.566-.162 18.602-1.801a54.363 54.363 0 0 0 16.218-7.43l-32.549-46.785zm-10.373-64.982-12.781 62.263a66.793 66.793 0 0 1-20.803-8.052 65.651 65.651 0 0 1-17.249-14.853z"/><path d="M91.101 183.139c-.166 0-.334-.017-.503-.051a69.094 69.094 0 0 1-21.582-8.353 67.955 67.955 0 0 1-17.906-15.419 2.5 2.5 0 0 1 .405-3.558l50.833-39.358a2.5 2.5 0 0 1 3.979 2.479l-12.781 62.263a2.5 2.5 0 0 1-2.445 1.997zm-34.454-25.03a63.048 63.048 0 0 0 14.928 12.332 64.017 64.017 0 0 0 17.586 7.201l10.912-53.157zm40.977-49.239-52.887 33.974c-4.709-5.985-8.336-12.599-10.722-19.549-2.45-7.137-3.553-14.519-3.258-21.805z"/><path d="M44.738 145.344a2.496 2.496 0 0 1-1.966-.954c-4.896-6.223-8.638-13.047-11.122-20.283-2.559-7.453-3.7-15.096-3.391-22.718a2.499 2.499 0 0 1 2.772-2.384l66.866 7.38a2.502 2.502 0 0 1 1.077 4.589l-52.887 33.974a2.49 2.49 0 0 1-1.349.396zm-11.526-41.067c.05 6.108 1.112 12.22 3.168 18.207 2.063 6.012 5.07 11.725 8.949 17.009l45.006-28.911z"/></g></svg></g><g transform="translate(1077.0 478.0) rotate(0.0 117.0 203.5) scale(1.0896898575020955 1.0857097127004027)"><svg width="214.74" height="374.87" viewBox="0 0 214.74 374.87"><path d="M52.437 91.624S23.635 81.276 21.245 78.242s-7.075-42.517-7.316-46.323c-.241-3.807 17.342-25.988 15.179-28.742S10.713 6.802 8.717 9.157 2.858 24.685 2.512 28.941s6.818 51.2 7.109 55.328c.291 4.127 4.318 28.674 4.318 28.674z" fill="#aef45d"/><path d="M13.939 115.443a2.498 2.498 0 0 1-2.466-2.096c-.166-1.007-4.05-24.708-4.345-28.902-.098-1.387-1.104-8.505-2.27-16.747C1.978 47.331-.207 31.53.02 28.738.365 24.504 4.198 10.62 6.81 7.54 9.086 4.856 21.563-.106 27.081.002c1.826.034 3.17.583 3.993 1.631 2.099 2.672-.354 6.997-7.896 18.679-2.57 3.979-6.437 9.969-6.746 11.562.38 5.519 4.812 40.938 6.814 44.856 1.894 1.76 16.717 7.755 30.037 12.541a2.498 2.498 0 0 1 .365 4.54L15.15 115.13a2.5 2.5 0 0 1-1.211.313zM26.463 4.968c-3.882.195-14.069 3.999-15.86 5.827-1.43 1.688-5.264 14.221-5.6 18.349-.2 2.458 2.933 24.615 4.805 37.854 1.403 9.921 2.202 15.606 2.306 17.096.196 2.779 2.275 16.018 3.72 24.941l30.594-16.941c-10.025-3.711-25.007-9.588-27.147-12.305-3.283-4.167-7.821-47.302-7.848-47.712-.147-2.326 1.952-5.818 7.543-14.478 2.461-3.811 6.338-9.815 7.487-12.631z" fill="#aef45d"/><path d="M3.516 118.715c3.926-7.284 49.49-34.017 58.156-32.206 8.666 1.812 36.908 20.29 44.738 30.022s59.342 183.578 62.532 191.861c3.191 8.282 49.633 57.849 42.569 63.417s-69.43-32.001-79.131-41.04c-9.7-9.039-118.035-148.723-119.374-157.614S-.41 126 3.516 118.715z" fill="#ffa9d8"/><path d="M209.529 374.867c-4.367 0-14.136-2.763-37.81-15.914-17.426-9.682-35.839-21.504-41.044-26.354-5.315-4.953-36.894-44.952-63.103-79.171-25.557-33.367-56.198-74.314-57.039-79.9-.364-2.419-1.637-7.407-3.109-13.183-5.312-20.826-9.134-37.202-6.109-42.815 2.546-4.723 16.818-13.995 28.266-20.501 7.651-4.349 26.142-14.304 32.602-12.966 9.817 2.054 38.298 21.115 46.174 30.902 5.565 6.917 28.614 81.168 51.744 156.628 5.782 18.862 10.349 33.762 11.174 35.902.991 2.573 8.132 11.405 15.037 19.946 17.093 21.142 29.135 36.618 28.392 43.245-.182 1.623-.996 2.574-1.646 3.087-.546.43-1.389 1.094-3.529 1.094zM5.716 119.902c-2.34 4.341 3.666 27.89 6.552 39.206 1.568 6.149 2.807 11.007 3.209 13.675.836 3.278 18.669 28.804 56.599 78.302 29.16 38.054 57.556 73.707 62.007 77.855 4.204 3.917 20.901 14.93 39.056 25.079 24.1 13.474 34.231 16.254 36.613 15.851-.026-1-.869-4.427-8.14-14.638-5.451-7.656-12.75-16.684-19.189-24.647-9.287-11.486-14.6-18.139-15.815-21.293-.888-2.305-5.025-15.802-11.288-36.233-14.747-48.108-45.432-148.213-50.859-154.959-7.623-9.475-35.29-27.467-43.302-29.143-7.362-1.543-52.131 24.802-55.443 30.945z" fill="#ffa9d8"/><g fill="#ffd2ed"><path d="M65.991 102.98c4.127.601 29.108 15.374 33.915 19.148 5.673 4.455 14.446 20.32 18.984 26.894-5.911-17.569-10.539-30.077-12.481-32.49-7.83-9.732-36.072-28.211-44.738-30.022-8.666-1.812-54.23 24.921-58.156 32.206-1.425 2.644-.737 9.374.775 17.293 14.683-9.617 54.29-34.109 61.701-33.029z"/><path d="M118.892 151.522a2.501 2.501 0 0 1-2.059-1.08c-1.304-1.888-2.882-4.417-4.709-7.347-4.229-6.779-10.021-16.063-13.761-19.001-5.264-4.134-29.413-18.129-32.731-18.641-3.993-.581-29.055 12.397-59.972 32.647a2.5 2.5 0 0 1-3.825-1.623c-2.489-13.032-1.585-16.972-.52-18.948 2.546-4.723 16.818-13.995 28.266-20.501 7.652-4.348 26.141-14.299 32.603-12.966 9.817 2.054 38.298 21.115 46.173 30.902 1.371 1.703 4.076 7.023 12.903 33.261a2.5 2.5 0 0 1-2.368 3.297zM60.446 88.891c-9.151 0-51.512 25.041-54.73 31.011-.385.714-1.032 3.258.377 11.959 11.706-7.528 51.539-32.609 60.258-31.354 4.965.723 30.577 16.104 35.098 19.656 2.438 1.914 5.22 5.478 8.049 9.609-3.123-8.394-4.465-10.961-5.038-11.673-7.623-9.475-35.29-27.467-43.301-29.143a3.544 3.544 0 0 0-.713-.065z"/></g></svg></g><g transform="translate(632.0 192.0) rotate(0.0 120.0 115.0) scale(1.085928627340968 1.0844657355978236)"><svg width="221.009" height="212.086" viewBox="0 0 221.009 212.086"><ellipse cx="110.505" cy="106.043" fill="#ffd04d" rx="102.349" ry="109.086" transform="matrix(.4112 -.9115 .9115 .4112 -31.597 163.1694)"/><path d="M115.486 212.053c-15.996 0-32.392-3.352-48.094-10.435-56.087-25.3-82.376-88.758-58.604-141.459C32.561 7.46 97.532-14.833 153.618 10.467c27.143 12.244 48.191 33.682 59.268 60.364 11.101 26.738 10.864 55.538-.664 81.095-17.118 37.945-55.597 60.127-96.736 60.127zM11.067 61.188l2.279 1.028c-22.639 50.187 2.529 110.677 56.102 134.844 53.576 24.17 115.577 2.996 138.216-47.19 10.954-24.283 11.169-51.672.604-77.121-10.588-25.504-30.727-46.004-56.706-57.723C97.989-9.143 35.985 12.029 13.346 62.216z" fill="#ffd04d"/><ellipse cx="110.505" cy="106.043" fill="#f6f6f6" rx="89.305" ry="95.184" transform="matrix(.7556 -.655 .655 .7556 -42.4542 98.3006)"/><path d="M116.474 201.261a95.78 95.78 0 0 1-9.854-.511c-25.156-2.602-48.412-14.879-65.483-34.572C5.854 125.479 8.269 65.392 46.519 32.233 65.07 16.15 89.177 8.726 114.39 11.336c25.156 2.601 48.412 14.879 65.483 34.571 35.282 40.699 32.868 100.787-5.382 133.945-16.118 13.974-36.429 21.409-58.017 21.409zM104.548 15.825c-20.39 0-39.556 7.009-54.754 20.185-36.167 31.354-38.355 88.277-4.879 126.893 16.236 18.729 38.333 30.404 62.219 32.874 23.828 2.46 46.585-4.533 64.082-19.701 36.167-31.354 38.355-88.277 4.879-126.893-16.236-18.729-38.333-30.403-62.219-32.873a90.608 90.608 0 0 0-9.328-.485z" fill="#f6f6f6"/><g fill="#ffd04d"><path d="M100.586 98.704 36.122 84.163c.685-7.238 2.641-14.134 5.782-20.385 3.225-6.419 7.65-12.058 13.07-16.658z"/><path d="M100.587 101.204a2.47 2.47 0 0 1-.551-.062l-64.464-14.54a2.498 2.498 0 0 1-1.938-2.674c.716-7.568 2.748-14.726 6.037-21.271 3.388-6.742 7.993-12.61 13.686-17.441a2.502 2.502 0 0 1 3.491.25l45.612 51.583a2.5 2.5 0 0 1-1.873 4.155zM38.859 82.218l54.728 12.345-38.823-43.907C50.42 54.72 46.852 59.502 44.139 64.9c-2.693 5.36-4.466 11.176-5.28 17.318zm69.043 10.636L67.727 39.241a56.764 56.764 0 0 1 18.614-9.962c6.956-2.184 14.307-3.025 21.714-2.482z"/><path d="M107.902 95.355c-.772 0-1.52-.358-2.001-1.001L65.727 40.74a2.5 2.5 0 0 1 .432-3.446 59.049 59.049 0 0 1 19.433-10.399c7.278-2.286 14.896-3.162 22.645-2.591a2.5 2.5 0 0 1 2.317 2.499l-.153 66.058a2.5 2.5 0 0 1-2.499 2.494zM71.207 39.716l34.211 45.656.13-56.205c-6.312-.204-12.513.63-18.459 2.497a54.042 54.042 0 0 0-15.882 8.052zm46.618 55.014 5.923-66.186a65.754 65.754 0 0 1 21.38 5.932c6.92 3.259 13.38 10.18 18.753 15.594z"/><path d="M117.825 97.23a2.5 2.5 0 0 1-2.49-2.722l5.923-66.186A2.503 2.503 0 0 1 124 26.057a68.072 68.072 0 0 1 22.193 6.157c6.706 3.158 12.709 9.248 18.006 14.621l1.456 1.474a2.499 2.499 0 0 1-.034 3.556l-46.057 44.66a2.493 2.493 0 0 1-1.739.705zm8.184-65.894-5.094 56.915 39.415-38.22c-4.928-4.997-10.488-10.572-16.267-13.294a63.055 63.055 0 0 0-18.054-5.401zm-.482 71.6 47.982-40.247c5.355 5.44 10.103 11.467 12.903 18.316 2.967 7.258 2.133 15.742 2.248 23.697z"/><path d="m188.66 107.203-.07-.001-63.133-1.767a2.499 2.499 0 0 1-1.537-4.414l47.982-40.247a2.5 2.5 0 0 1 3.388.161c6.464 6.566 10.859 12.822 13.435 19.124 2.565 6.275 2.502 13.178 2.441 19.854a203.839 203.839 0 0 0-.007 4.754 2.496 2.496 0 0 1-.744 1.815 2.489 2.489 0 0 1-1.755.721zm-56.483-6.581 53.973 1.51c.003-.752.01-1.508.017-2.265.057-6.181.115-12.572-2.069-17.915-2.112-5.168-5.646-10.368-10.773-15.846zm-9.839 12.364 64.951 10.087c-.615 7.249-2.897 18.023-5.976 24.308-3.161 6.453-7.529 12.138-12.9 16.791z"/><path d="M168.414 166.672a2.492 2.492 0 0 1-1.859-.827l-46.074-51.187a2.5 2.5 0 0 1 2.242-4.143l64.95 10.087a2.5 2.5 0 0 1 2.107 2.682c-.637 7.51-2.979 18.576-6.222 25.197-3.32 6.777-7.865 12.692-13.509 17.581a2.49 2.49 0 0 1-1.635.61zm-39.518-50.138 39.694 44.098c4.301-4.106 7.819-8.925 10.478-14.351 2.627-5.362 4.667-14.348 5.489-21.104zm-14.57 3.273 38.214 54.928a57.068 57.068 0 0 1-19.03 9.234c-7.053 1.918-14.451 2.481-21.851 1.664z"/><path d="M118.26 188.498a62.87 62.87 0 0 1-6.876-.38 2.501 2.501 0 0 1-2.224-2.587l2.667-65.826a2.502 2.502 0 0 1 1.798-2.299 2.502 2.502 0 0 1 2.752.973l38.214 54.928a2.502 2.502 0 0 1-.563 3.437 59.396 59.396 0 0 1-19.863 9.638 60.567 60.567 0 0 1-15.905 2.116zm-4.008-5.14c6.317.44 12.566-.162 18.602-1.801a54.363 54.363 0 0 0 16.218-7.43l-32.549-46.785zm-10.373-64.982-12.781 62.263a66.793 66.793 0 0 1-20.803-8.052 65.651 65.651 0 0 1-17.249-14.853z"/><path d="M91.101 183.139c-.166 0-.334-.017-.503-.051a69.094 69.094 0 0 1-21.582-8.353 67.955 67.955 0 0 1-17.906-15.419 2.5 2.5 0 0 1 .405-3.558l50.833-39.358a2.5 2.5 0 0 1 3.979 2.479l-12.781 62.263a2.5 2.5 0 0 1-2.445 1.997zm-34.454-25.03a63.048 63.048 0 0 0 14.928 12.332 64.017 64.017 0 0 0 17.586 7.201l10.912-53.157zm40.977-49.239-52.887 33.974c-4.709-5.985-8.336-12.599-10.722-19.549-2.45-7.137-3.553-14.519-3.258-21.805z"/><path d="M44.738 145.344a2.496 2.496 0 0 1-1.966-.954c-4.896-6.223-8.638-13.047-11.122-20.283-2.559-7.453-3.7-15.096-3.391-22.718a2.499 2.499 0 0 1 2.772-2.384l66.866 7.38a2.502 2.502 0 0 1 1.077 4.589l-52.887 33.974a2.49 2.49 0 0 1-1.349.396zm-11.526-41.067c.05 6.108 1.112 12.22 3.168 18.207 2.063 6.012 5.07 11.725 8.949 17.009l45.006-28.911z"/></g></svg></g></svg>