<svg height="115.901" viewBox="0 0 158.106 115.901" width="158.106" xmlns="http://www.w3.org/2000/svg"><path d="m4.774 5.313 145.433-2.813 5.399 110.901-153.106-2.331z" fill="#ffd04d"/><path d="m155.606 115.9h-.038l-153.106-2.331a2.5 2.5 0 0 1 -2.462-2.553l2.275-105.757a2.5 2.5 0 0 1 2.45-2.446l145.434-2.813a2.5 2.5 0 0 1 2.541 2.378l5.4 110.9a2.5 2.5 0 0 1 -2.5 2.621zm-150.552-7.292 147.925 2.253-5.151-105.815-140.606 2.72z" fill="#ffd04d"/><g fill="#d3a32d"><ellipse cx="76.242" cy="38.873" rx="20.754" ry="24.05" transform="matrix(.99995207 -.00979114 .00979114 .99995207 -.377 .748)"/><path d="m76.3 65.423a21.783 21.783 0 0 1 -16.438-7.749 28.434 28.434 0 0 1 -6.872-18.574 28.444 28.444 0 0 1 6.5-18.7 21.305 21.305 0 0 1 33.134-.324 28.434 28.434 0 0 1 6.876 18.57c.138 14.639-10.176 26.654-23 26.776zm-.11-48.1h-.154a16.838 16.838 0 0 0 -12.722 6.3 23.444 23.444 0 0 0 -5.32 15.425 23.434 23.434 0 0 0 5.617 15.322 16.861 16.861 0 0 0 12.689 6.053h.154c10.065-.1 18.159-9.845 18.042-21.727a23.439 23.439 0 0 0 -5.621-15.318 16.863 16.863 0 0 0 -12.689-6.054z"/><path d="m40.637 95.2c-2.619-3.11 3.813-17.986 7.666-20.758s19.845-4.226 19.845-4.226l3.243-16.146 12.309-.12 4.862 15.122s17.632 3.381 20.474 6.64 8.679 18.8 5.843 21.168-71.622 1.431-74.242-1.68z"/><path d="m89.978 100.709c-3.931 0-8.1-.038-12.348-.116-36.278-.663-38.119-2.848-38.9-3.782-1.045-1.241-1.4-3.069-1.088-5.589.726-5.843 5.32-16.013 9.2-18.808 3.587-2.581 14.414-3.99 19.219-4.5l2.879-14.336a2.5 2.5 0 0 1 2.427-2.008l12.307-.12a2.466 2.466 0 0 1 2.4 1.735l4.416 13.715c5.463 1.108 17.561 3.876 20.429 7.165 2.824 3.238 7.625 15.555 7.185 21.1a5.035 5.035 0 0 1 -1.624 3.635c-.788.658-1.681 1.4-13.959 1.752-3.685.105-7.951.157-12.543.157zm-47.456-7.345c7.084 2.183 62.519 3.348 70.621 1.492.518-3.18-3.652-14.818-5.992-17.5-1.36-1.556-10.951-4.273-19.061-5.829a2.5 2.5 0 0 1 -1.909-1.69l-4.3-13.369-8.439.082-2.842 14.159a2.5 2.5 0 0 1 -2.225 2c-6.36.579-16.338 2.129-18.612 3.765-2.926 2.103-7.847 13.784-7.241 16.89z"/></g></svg>