<svg height="1175.49" viewBox="0 0 1085.155 1175.49" width="1085.155" xmlns="http://www.w3.org/2000/svg"><path d="m205.809 282.605s-183.921-55.802-199.121-36.489 14.707 332.706 30.227 352.493 207.785 69.282 207.785 69.282-26.502 37.347-24.31 48.659 39.654 19.355 52.891 17.665c13.237-1.691 54.156-67.089 53.186-91.205s-237.899-69.649-248.767-91.969-27.562-213.018-6.683-226.544 172.96 12.351 172.96 12.351z" fill="#ffd04d"/><path d="m269.196 736.936c-16.294 0-48.898-7.721-51.26-19.91-2.026-10.455 16.091-38.05 22.661-47.618-11.953-3.122-52.861-13.925-94.681-26.342-100.776-29.921-108.447-39.7-110.968-42.914-8.623-10.993-20.122-99.842-27.156-177.742-2.459-27.225-14.161-163.745-3.068-177.84 4.504-5.721 20.58-10.9 107.811 10.118 47.402 11.421 93.54 25.385 94 25.524.534.162.998.498 1.319.954l38.168 54.243c.581.825.608 1.919.07 2.773-.539.854-1.537 1.298-2.534 1.13-42.033-7.151-154.723-23.377-171.181-12.717-7.893 5.113-10.808 47.402-7.427 107.736 2.911 51.951 9.779 104.896 14.998 115.615 1.357 2.787 9.071 8.15 38.116 17.878 21.71 7.271 49.38 15.091 78.675 23.369 31.713 8.962 64.506 18.229 89.122 26.76 37.623 13.038 42.902 19.933 43.104 24.957.54 13.421-10.815 37.418-21.621 55.4-3.704 6.163-22.736 36.979-33.747 38.385-1.268.162-2.751.241-4.402.241zm-246.11-492.411c-10 0-13.348 1.757-14.434 3.137-6.138 7.8-4.444 79.474 4.119 174.298 8.251 91.368 19.477 166.648 26.111 175.106 12.302 15.684 153.192 54.695 206.44 68.404.797.205 1.442.789 1.725 1.562s.167 1.635-.309 2.306c-10.007 14.104-25.342 39.265-23.894 46.737 1.703 8.79 36.436 17.403 50.119 15.661 4.443-.567 16.5-13.378 30.095-36.001 13.111-21.818 21.319-42.475 20.911-52.624-.082-2.031-4.118-8.087-39.746-20.434-24.479-8.483-57.2-17.73-88.844-26.673-71.114-20.097-114.672-33.078-119.927-43.869-5.552-11.403-12.503-64.124-15.496-117.524-1.597-28.513-1.849-53.513-.728-72.298 1.845-30.916 6.836-37.586 10.429-39.914 3.415-2.212 13.805-8.944 95.961.719 30.916 3.636 60.615 8.299 72.882 10.292l-34.24-48.661c-6.407-1.925-49.127-14.655-92.917-25.205-48.922-11.787-74.702-15.019-88.259-15.019z" fill="#ffd04d"/><path d="m326.467 643.01c-.355-8.824-29.123-19.506-72.196-32.574l45.382 95.412c14.427-22.685 27.466-46.663 26.815-62.838z" fill="#d3a32d"/><path d="m299.653 708.348c-.051 0-.102-.002-.153-.005-.908-.056-1.714-.6-2.105-1.421l-45.382-95.413c-.425-.895-.283-1.955.363-2.705.645-.75 1.674-1.048 2.62-.762 54.235 16.455 73.593 25.581 73.969 34.867.563 13.989-7.827 33.814-27.203 64.28-.46.724-1.258 1.158-2.109 1.158zm-40.688-93.865 40.995 86.191c11.267-18.034 24.637-41.968 24.009-57.563-.056-1.391-1.977-5.392-18.565-12.499-10.333-4.427-25.177-9.585-46.439-16.129z" fill="#d3a32d"/><path d="m243.977 336.848-38.168-54.243s-40.433-12.267-84.951-23.308l25.646 64.247c46.845 4.69 97.473 13.304 97.473 13.304z" fill="#d3a32d"/><path d="m243.978 339.348c-.139 0-.279-.012-.42-.036-.505-.086-51.084-8.654-97.303-13.281-.928-.093-1.727-.695-2.073-1.561l-25.646-64.247c-.348-.871-.179-1.863.438-2.57.616-.707 1.577-1.01 2.486-.783 44.07 10.929 84.67 23.219 85.075 23.342.533.162.998.498 1.318.954l38.168 54.243c.581.825.608 1.919.07 2.773-.463.733-1.266 1.166-2.114 1.166zm-95.714-18.139c36.68 3.732 75.703 9.84 90.238 12.202l-34.24-48.661c-5.74-1.725-40.632-12.125-79.271-21.844z" fill="#d3a32d"/><path d="m770.971 155.228s197.185-110.661 218.849-100.409c21.663 10.252 98.612 300.046 92.49 325.512-6.122 25.467-261.179 187.155-261.179 187.155s54.74 26.338 54.496 42.355-39.954 42.991-51.884 43.471c-11.929.48-75.894-68.312-68.935-86.68 6.958-18.368 250.332-161.815 252.055-185.719s-29.417-216.759-49.802-225.131-193.688 78.92-193.688 78.92l7.599-79.475z" fill="#ffd04d"/><path d="m823.651 655.814c-10.298.003-40.754-31.945-56.449-53.724-12.396-17.2-17.352-29.428-14.732-36.343 3.168-8.363 42.26-34.566 105.78-76.625 34.872-23.09 70.931-46.966 98.978-67.135 40.531-29.146 46.933-38.357 47.142-41.254.797-11.063-6.12-63.764-16.571-117.735-14.253-73.604-25.714-102.451-31.687-104.904-3.534-1.451-20.591-.816-102.508 36.285-45.303 20.518-88.673 42.337-89.106 42.555-.812.409-1.783.345-2.536-.169-.751-.514-1.164-1.395-1.078-2.301l7.599-79.475c.078-.816.551-1.542 1.265-1.942.494-.277 49.938-27.993 101.393-54.098 105.098-53.32 116.124-48.105 119.749-46.39 3.683 1.743 10.358 9.137 25.742 53.039 9.582 27.345 21.04 64.851 32.264 105.608 20.335 73.845 39.177 155.851 35.846 169.709-1.002 4.17-4.053 16.86-133.916 104.615-54.967 37.144-109.99 72.366-124.607 81.683 13.443 6.794 52.137 27.663 51.909 42.666-.27 17.719-41.458 45.415-54.283 45.931-.063.003-.128.004-.192.004zm129.789-503.163c2.577 0 3.767.489 4.57.819 3.529 1.45 9.243 6.857 18.073 36.956 5.3 18.065 11.048 42.832 16.624 71.622 9.795 50.58 17.575 106.208 16.65 119.045-.984 13.653-59.376 53.289-148.346 112.198-49.708 32.913-101.107 66.946-103.865 74.227-1.876 4.951 3.4 16.782 14.113 31.648 19.326 26.817 46.597 51.648 52.309 51.648.025 0 .05 0 .075-.002 10.411-.418 49.262-26.388 49.485-41.011.16-10.499-32.473-30.146-53.08-40.063-.818-.395-1.359-1.201-1.412-2.107s.39-1.771 1.157-2.257c.637-.404 64.479-40.906 128.24-83.993 111.586-75.404 130.502-96.043 131.846-101.635 2.677-11.134-13.051-84.583-35.805-167.213-11.194-40.651-22.616-78.042-32.162-105.282-15.284-43.617-21.592-49.43-23.162-50.172-3.74-1.768-22.457-.797-115.335 46.323-47.031 23.86-92.385 49.072-100.081 53.368l-7.044 73.679c11.829-5.892 47.884-23.7 85.25-40.623 70.805-32.067 93.577-37.175 101.899-37.175z" fill="#ffd04d"/><path d="m754.807 566.633c-4.947 13.059 18.193 40.813 39.753 64.002l11.733-103.84c-26.08 16.793-49.748 35.252-51.486 39.838z" fill="#d3a32d"/><path d="m794.561 633.135c-.684 0-1.351-.28-1.832-.798-32.178-34.609-44.595-55.146-40.26-66.589 2.25-5.938 28.987-25.935 52.47-41.055.812-.523 1.852-.532 2.672-.022.82.509 1.274 1.445 1.166 2.405l-11.732 103.839c-.11.971-.774 1.789-1.702 2.094-.256.085-.521.126-.782.126zm-37.416-65.614c-4.671 12.344 22.236 42.941 35.544 57.413l10.525-93.152c-26.095 17.156-44.829 32.637-46.069 35.739z" fill="#d3a32d"/><path d="m770.971 155.228-7.599 79.475s23.399-11.786 54.012-26.281l4.171-80.679c-34.22 18.128-50.585 27.484-50.585 27.484z" fill="#d3a32d"/><path d="m763.372 237.203c-.495 0-.988-.147-1.411-.437-.751-.514-1.164-1.395-1.078-2.301l7.599-79.475c.078-.809.543-1.529 1.248-1.933.164-.094 16.791-9.584 50.655-27.523.795-.421 1.755-.384 2.515.101.759.484 1.199 1.338 1.152 2.237l-4.171 80.679c-.047.919-.595 1.737-1.427 2.13-30.232 14.315-53.724 26.137-53.958 26.254-.355.179-.74.267-1.125.267zm9.963-80.442-7.045 73.688c7.843-3.908 26.329-13.05 48.675-23.646l3.866-74.783c-26.426 14.04-41.444 22.454-45.496 24.742z" fill="#d3a32d"/><g fill="#ffd04d"><path d="m157.221 199.719c1.376-.78-47.194-27.353-47.924-45.507-.731-18.154 672.287-160.755 684.182-151.259s-13.902 78.878-13.902 78.878-6.507 548.152-13.666 573.808-145.385 150.87-145.385 150.87l-110.365 29.63s-161.416-88.069-180.117-104.208-172.824-532.213-172.824-532.213z"/><path d="m510.162 838.639c-.415 0-.827-.104-1.197-.306-6.601-3.601-161.866-88.381-180.553-104.51-3.024-2.61-12.229-10.553-94.178-273.307-39.155-125.543-76.631-250.794-79.264-259.6-.904-.684-3.089-2.125-5.213-3.526-13.746-9.066-42.348-27.931-42.958-43.08-.099-2.462 2.427-4.087 5.17-5.477 28.84-14.601 210.255-56.506 356.845-87.955 82.538-17.708 160.923-33.662 220.715-44.924 100.529-18.935 103.77-16.345 105.51-14.954 3.74 2.986 7.64 10.961-1.635 45.6-4.515 16.863-10.325 32.94-11.332 35.691-.333 27.925-6.628 548.49-13.752 574.021-7.27 26.052-140.449 146.919-146.115 152.051-.294.267-.647.459-1.03.562l-110.364 29.63c-.213.058-.431.086-.648.086zm-350.411-639.187c61.875 207.167 158.623 519.104 171.927 530.586 17.581 15.173 165.934 96.392 178.803 103.427l108.814-29.214c47.748-43.277 138.717-129.604 144.208-149.284 6.99-25.052 13.509-567.688 13.574-573.166.003-.287.057-.572.157-.841.064-.173 6.474-17.475 11.348-35.684 8.427-31.482 5.104-38.623 3.538-40.189-11.264-2.558-164.161 26.47-342.409 65.023-88.411 19.123-169.705 37.736-228.908 52.412-90.041 22.32-106.395 29.834-108.964 32.181 1.367 12.592 29.845 31.375 40.671 38.516 6.33 4.175 7.206 4.752 7.241 6.234z"/><path d="m521.472 878.33 92.29-19.882s-3.181 136.03 2.643 150.863c5.823 14.833 92.891 103.805 92.891 103.805l-338.449 27.542s107.689-80.234 117.099-97.329c9.409-17.094 33.527-164.999 33.527-164.999z"/><path d="m370.846 1143.158c-1.033 0-1.969-.639-2.338-1.617-.394-1.044-.049-2.222.845-2.888 37.097-27.64 109.167-83.385 116.403-96.529 7.278-13.223 24.931-113.186 33.249-164.196.166-1.015.936-1.825 1.941-2.042l92.291-19.883c.748-.158 1.529.03 2.12.518.59.488.924 1.22.906 1.985-.881 37.696-2.156 138.107 2.47 149.892 4.625 11.78 68.232 78.324 92.351 102.971.678.692.895 1.715.555 2.623-.339.908-1.173 1.538-2.139 1.617l-338.45 27.542c-.068.005-.136.008-.204.008zm152.818-262.743c-2.833 17.254-24.459 147.644-33.528 164.119-8.249 14.986-86.657 74.705-110.861 92.93l324.521-26.408c-16.929-17.41-84.413-87.32-89.718-100.831-5.502-14.016-3.337-127.602-2.885-148.666z"/></g><path d="m519.455 1056.723c5.631-17.179 19.999-150.903 23.392-182.998l-21.375 4.605s-24.117 147.905-33.526 165c-9.41 17.094-117.099 97.329-117.099 97.329l70.234-5.715c19.349-16.184 73.131-62.223 78.375-78.219z" fill="#ffde8a"/><path d="m370.846 1143.158c-1.033 0-1.969-.639-2.338-1.617-.394-1.044-.049-2.222.845-2.888 37.097-27.64 109.167-83.385 116.403-96.529 7.278-13.223 24.931-113.187 33.249-164.196.166-1.015.936-1.825 1.941-2.042l21.375-4.605c.783-.166 1.601.049 2.197.585.596.535.899 1.325.815 2.122-4.093 38.718-17.885 166.378-23.503 183.515l-2.375-.778 2.375.778c-5.364 16.362-57.136 60.948-79.146 79.358-.396.331-.886.532-1.401.574l-70.234 5.716c-.068.005-.136.008-.204.008zm152.818-262.743c-2.833 17.254-24.459 147.644-33.528 164.119-8.249 14.986-86.656 74.705-110.861 92.93l60.811-4.949c17.601-14.743 71.953-61.192 76.994-76.569 5.401-16.477 19.313-145.118 22.917-179.049l-16.333 3.519z" fill="#ffde8a"/><path d="m334.257 1172.99h414.404s26.846-52.17 13.944-62.673-431.184 23.596-439.503 31.337 11.155 31.337 11.155 31.337z" fill="#ffd04d"/><path d="m748.662 1175.49h-414.405c-.746 0-1.453-.333-1.928-.908-2.146-2.602-20.691-25.675-10.93-34.759 1.176-1.095 3.623-3.371 71.818-10.296 40.431-4.106 94.275-8.799 147.728-12.877 57.389-4.378 110.165-7.735 148.603-9.455 69.373-3.104 72.927-.209 74.636 1.183 6.347 5.167 5.903 17.613-1.356 38.051-5.096 14.348-11.875 27.573-11.943 27.705-.429.833-1.287 1.356-2.223 1.356zm-413.212-5h411.68c9.902-19.631 21.958-51.672 13.897-58.235-5.548-3.203-75.434-1.607-218.874 9.318-111.091 8.462-210.297 18.516-217.469 22.028-4.496 4.591 4.861 19.463 10.766 26.889z" fill="#ffd04d"/><path d="m387.379 698.234c-13.212-17.878-152.197-491.848-175.534-576.056-61.851 15.488-102.728 27.553-102.548 32.034.73 18.154 49.3 44.728 47.924 45.507 0 0 154.123 516.074 172.824 532.213s180.117 104.208 180.117 104.208l24.784-6.654c-29.908-25.233-135.206-114.524-147.567-131.252z" fill="#ffde8a"/><path d="m510.162 838.639c-.415 0-.827-.104-1.197-.306-6.601-3.601-161.866-88.381-180.553-104.51-3.025-2.61-12.229-10.553-94.178-273.307-39.155-125.543-76.631-250.794-79.264-259.6-.904-.684-3.09-2.125-5.214-3.526-13.746-9.066-42.347-27.931-42.957-43.08-.133-3.314-.334-8.324 104.438-34.56 1.316-.33 2.654.451 3.017 1.758 26.056 94.016 162.547 558.204 175.136 575.238 9.642 13.048 82.345 76.137 147.169 130.826.711.601 1.03 1.546.828 2.455-.202.908-.893 1.629-1.792 1.87l-24.784 6.654c-.213.058-.431.086-.648.086zm-350.412-639.186c61.875 207.167 158.623 519.104 171.928 530.586 17.581 15.173 165.934 96.392 178.803 103.427l19.198-5.155c-35.221-29.756-132.289-112.328-144.312-128.591-13.604-18.409-151.402-488.873-175.279-574.524-80.802 20.295-95.81 27.284-98.25 29.507 1.367 12.592 29.844 31.375 40.669 38.515 6.331 4.176 7.206 4.753 7.242 6.235z" fill="#ffde8a"/><path d="m471.864 832.71c-.388-9.646 175.771-43.268 180.55-37.03s-8.892 53.396-15.091 59.886c-6.199 6.489-117.311 38.244-128.584 34.65-11.274-3.594-36.486-47.86-36.874-57.506z" fill="#ffd04d"/><path d="m511.294 892.964c-1.405 0-2.528-.115-3.314-.366-7.646-2.438-18.252-18.315-23.894-27.563-6.921-11.345-14.479-26.268-14.719-32.224-.111-2.76 2.66-4.755 10.589-7.622 19.896-7.193 65.28-16.841 98.099-22.917 19.469-3.604 37.416-6.512 50.532-8.187 23.46-2.996 24.764-1.293 25.812.074 3.43 4.477.262 19.882-2.999 32.018-3.4 12.654-8.513 27.184-12.27 31.115-5.379 5.632-61.158 21.133-63.529 21.79-15.937 4.415-51.596 13.881-64.307 13.882zm-36.879-59.776c1.302 9.91 25.181 51.49 35.083 54.646 3.524 1.123 25.206-2.621 64.49-13.494 34.91-9.661 59.122-18.167 61.533-20.507 6.07-6.354 17.665-50.024 15.103-56.27-5.375-1.2-40.196 3.302-89.178 12.978-52.368 10.344-82.997 19.103-87.032 22.646z" fill="#ffd04d"/><path d="m516.87 894.663c-1.115 0-2.132-.752-2.42-1.883-.341-1.338.466-2.699 1.804-3.04l99.321-25.351c1.339-.348 2.699.466 3.041 1.804s-.466 2.699-1.804 3.04l-99.321 25.351c-.207.054-.416.079-.62.079z" fill="#d3a32d"/><path d="m380.111 1133.374c-1.297 0-2.394-1.001-2.491-2.315-.102-1.377.932-2.576 2.309-2.678l326.215-24.12c1.392-.109 2.576.933 2.678 2.309.102 1.377-.932 2.576-2.309 2.678l-326.215 24.12c-.063.005-.125.007-.187.007z" fill="#d3a32d"/><path d="m483.939 826.952c-1.118 0-2.136-.756-2.422-1.89-.338-1.339.474-2.697 1.813-3.035 47.96-12.1 100.046-22.784 154.812-31.757 1.361-.225 2.647.7 2.872 2.063.223 1.362-.701 2.648-2.063 2.871-54.627 8.951-106.574 19.606-154.397 31.671-.205.052-.411.077-.613.077z" fill="#d3a32d"/></svg>