<svg height="212.994" viewBox="0 0 215.982 212.994" width="215.982" xmlns="http://www.w3.org/2000/svg"><path d="m9.929 22.837c16.716-11.337 161.151-26.164 177.196-17.971s26.357 205.628 26.357 205.628h-203.553s-16.715-176.315 0-187.657z" fill="#3054e5"/><path d="m213.482 213h-203.553a2.5 2.5 0 0 1 -2.489-2.27c-.042-.441-4.208-44.66-6.276-89.7-1.217-26.486-1.481-48.085-.785-64.195 1.206-27.886 4.987-33.923 8.146-36.067 9.67-6.561 54.526-13.112 90-16.729 35.559-3.625 80.4-6.167 89.737-1.4 3.078 1.572 11.256 5.748 20.548 107.886 4.536 49.855 7.143 99.344 7.169 99.838a2.5 2.5 0 0 1 -2.5 2.631zm-201.273-5h198.633c-.6-10.885-3.082-53.823-7.012-97.028-8.391-92.219-15.778-102.825-17.842-103.879-15.036-7.68-158.678 6.971-174.655 17.813-2.793 1.894-8.888 15.031-5.176 95.882 1.797 39.112 5.18 77.622 6.052 87.212z" fill="#3054e5"/><path d="m173.153 48.628-3.792 23.805c-9.418-.987-18.852-1.654-24.064 2.767-6.362 5.4-6.191 14.349-5.043 25.094l26.007-1.121-1.619 26.445-19.289 1.668 9.924 83.208h-22.26l-12.34-81.79-22.67 4.046 1.282-26.65 17.56-2.337c-2.574-19.521-4.35-35.323 1.165-44.735 9.477-16.176 32.452-15.31 55.139-10.4z" fill="#fff"/><path d="m155.277 213h-22.26a2.5 2.5 0 0 1 -2.473-2.127l-11.956-79.251-20.141 3.594a2.5 2.5 0 0 1 -2.937-2.581l1.282-26.652a2.5 2.5 0 0 1 2.167-2.358l15.088-2.008c-2.624-20.26-3.734-34.387 1.81-43.85 8.43-14.387 27.344-18.174 57.825-11.577a2.5 2.5 0 0 1 1.94 2.837l-3.792 23.8a2.494 2.494 0 0 1 -2.729 2.093c-9.195-.962-17.813-1.522-22.187 2.188-4.72 4-5.311 10.64-4.406 20.587l23.645-1.018a2.5 2.5 0 0 1 2.6 2.65l-1.619 26.446a2.5 2.5 0 0 1 -2.28 2.337l-16.716 1.445 9.618 80.645a2.5 2.5 0 0 1 -2.482 2.8zm-20.109-5h17.293l-9.59-80.413a2.5 2.5 0 0 1 2.267-2.787l17.14-1.482 1.318-21.522-23.234 1a2.5 2.5 0 0 1 -2.593-2.232c-1.15-10.75-1.563-20.926 5.91-27.265 5.428-4.606 14.157-4.482 23.585-3.584l3.046-19.124c-26.729-5.422-43.142-2.239-50.139 9.7-4.949 8.447-3.472 23.21-.843 43.145a2.5 2.5 0 0 1 -2.149 2.8l-15.493 2.064-1.031 21.437 19.583-3.5a2.5 2.5 0 0 1 2.911 2.088z" fill="#fff"/><g fill="#2043b7"><path d="m68.065 10.148c-25.183 3.622-52.446 8.829-58.136 12.689-16.715 11.342 0 187.657 0 187.657h50.689c-1.736-44.328.69-160.973 7.447-200.346z"/><path d="m60.618 213h-50.689a2.5 2.5 0 0 1 -2.489-2.27c-.042-.441-4.208-44.66-6.276-89.7-1.217-26.486-1.481-48.085-.785-64.195 1.206-27.886 4.987-33.923 8.146-36.067 8.158-5.535 50.732-11.879 59.184-13.095a2.5 2.5 0 0 1 2.82 2.9c-6.791 39.571-9.1 156.735-7.413 199.826a2.5 2.5 0 0 1 -2.5 2.6zm-48.409-5h45.817c-1.468-43.961.74-152.978 7.032-194.882-27.955 4.14-49.344 8.82-53.725 11.793-2.793 1.889-8.888 15.026-5.176 95.877 1.797 39.112 5.18 77.622 6.052 87.212z"/></g></svg>