<svg width="402" height="412" viewBox="0 0 402 412" fill="none" xmlns="http://www.w3.org/2000/svg">
<path d="M92.2857 167.244C57.3463 88.5828 114.928 0 201 0C287.072 0 344.654 88.5828 309.714 167.244L201 412L92.2857 167.244Z" fill="#D5C337"/>
<circle cx="200.5" cy="113.5" r="58.5" fill="#D23D22"/>
<path d="M69.657 222.889C70.4148 230.645 67.804 237.214 61.8244 242.597C55.8741 247.976 47.1256 251.23 35.579 252.358L29.1934 252.982L26.3676 274.673L9.48509 276.323L18.1672 209.728L41.5666 207.442C45.8236 207.026 49.5552 206.956 52.7612 207.231C55.9964 207.504 58.8356 208.242 61.2787 209.446C63.6926 210.652 65.6098 212.349 67.0304 214.535C68.4481 216.693 69.3236 219.477 69.657 222.889ZM51.8829 226.259C51.635 223.723 50.5328 221.932 48.5762 220.886C46.6196 219.841 43.8335 219.495 40.2179 219.849L33.4386 220.511L30.8397 240.458L36.8754 239.868C41.9781 239.37 45.8424 237.947 48.4685 235.6C51.1208 233.222 52.259 230.108 51.8829 226.259ZM110.43 266.459L72.2915 270.186L73.8312 258.379L84.4593 257.34L90.062 214.36L79.4339 215.399L80.9736 203.591L119.112 199.865L117.573 211.672L106.944 212.711L101.342 255.691L111.97 254.652L110.43 266.459ZM174.374 260.211L119.659 265.558L121.287 253.3L160.341 208.332L128.282 211.465L129.915 198.809L181.306 193.788L179.656 206.268L140.711 251.005L176.051 247.552L174.374 260.211ZM236.393 254.151L181.678 259.498L183.306 247.24L222.36 202.272L190.301 205.405L191.934 192.749L243.325 187.728L241.675 200.208L202.73 244.945L238.07 241.492L236.393 254.151ZM308.996 247.057L292.07 248.711L289.284 235.56L265.316 237.902L259.005 251.942L241.466 253.656L274.16 184.715L293.579 182.817L308.996 247.057ZM286.874 224.007L281.964 200.864L270.823 225.575L286.874 224.007Z" fill="#D26522"/>
<path d="M143.798 293.44C144.519 300.817 143.245 307.815 139.977 314.434C136.708 321.052 132.204 326.32 126.464 330.237C122.984 332.578 119.279 334.28 115.35 335.341C111.418 336.372 106.668 337.16 101.099 337.705L77.5243 340.008L86.2064 273.413L107.288 271.354C113.498 270.747 118.546 270.739 122.431 271.331C126.315 271.923 129.503 272.921 131.996 274.326C135.42 276.229 138.125 278.761 140.112 281.923C142.125 285.052 143.354 288.891 143.798 293.44ZM126.365 296.689C126.075 293.715 125.271 291.217 123.955 289.197C122.637 287.148 120.776 285.578 118.373 284.488C117.267 284.008 116.145 283.676 115.009 283.492C113.898 283.277 112.636 283.165 111.223 283.156C109.87 283.17 108.333 283.261 106.613 283.43C104.893 283.598 103.391 283.744 102.108 283.87L101.54 283.925L95.9518 326.153L97.4826 326.004C99.1737 325.838 100.982 325.662 102.906 325.474C104.83 325.286 106.383 325.06 107.564 324.798C109.096 324.501 110.458 324.132 111.651 323.692C112.874 323.249 114.191 322.575 115.604 321.672C119.592 319.104 122.499 315.567 124.326 311.062C126.181 306.553 126.861 301.762 126.365 296.689ZM212.547 277.627C213.057 282.846 211.897 287.389 209.066 291.257C206.235 295.125 202.182 298.229 196.906 300.57L214.64 326.61L195.877 328.444L181.297 305.76L171.85 306.683L168.672 331.102L151.877 332.743L160.559 266.148L185.971 263.665C193.931 262.888 200.216 263.642 204.825 265.929C209.432 268.188 212.006 272.087 212.547 277.627ZM194.713 282.195C194.457 279.571 193.43 277.802 191.634 276.888C189.864 275.943 187.346 275.629 184.08 275.948L175.77 276.76L173.416 294.696L181.682 293.889C186.144 293.453 189.51 292.211 191.783 290.164C194.053 288.088 195.03 285.432 194.713 282.195ZM257.196 322.452L219.057 326.179L220.597 314.371L231.225 313.333L236.828 270.353L226.2 271.391L227.739 259.584L265.878 255.858L264.338 267.665L253.71 268.703L248.108 311.683L258.736 310.645L257.196 322.452ZM338.613 248.751L306.181 317.666L287.375 319.503L272.307 255.229L289.496 253.55L299.244 299.534L320.637 250.507L338.613 248.751ZM395.121 243.229L393.483 255.841L363.086 258.811L361.511 270.71L389.721 267.953L388.044 280.613L359.834 283.369L357.636 300.186L388.033 297.216L386.439 309.824L339.247 314.435L347.929 247.84L395.121 243.229Z" fill="#D23D22"/>
</svg>
