<svg width="399" height="173" viewBox="0 0 399 173" fill="none" xmlns="http://www.w3.org/2000/svg">
<path d="M66.5354 49.328C67.2932 57.084 64.6824 63.6532 58.7029 69.0356C52.7525 74.4151 44.004 77.669 32.4575 78.7973L26.0719 79.4212L23.246 101.112L6.36351 102.762L15.0457 36.1674L38.445 33.881C42.702 33.465 46.4336 33.3948 49.6396 33.6703C52.8748 33.9429 55.714 34.681 58.1571 35.8847C60.571 37.0912 62.4883 38.7878 63.9088 40.9745C65.3265 43.132 66.202 45.9165 66.5354 49.328ZM48.7613 52.6984C48.5135 50.1616 47.4112 48.3707 45.4546 47.3256C43.498 46.2804 40.7119 45.9345 37.0963 46.2878L30.317 46.9502L27.7182 66.8971L33.7539 66.3073C38.8565 65.8087 42.7209 64.3861 45.3469 62.0396C47.9993 59.661 49.1374 56.5473 48.7613 52.6984ZM107.309 92.8985L69.1699 96.625L70.7096 84.8178L81.3377 83.7793L86.9404 40.7993L76.3123 41.8378L77.852 30.0305L115.991 26.3039L114.451 38.1112L103.823 39.1497L98.2202 82.1297L108.848 81.0912L107.309 92.8985ZM171.252 86.6505L116.537 91.9967L118.165 79.7393L157.22 34.7712L125.16 37.9037L126.794 25.2483L178.185 20.2269L176.534 32.7073L137.59 77.4439L172.929 73.9908L171.252 86.6505ZM233.271 80.5905L178.556 85.9368L180.184 73.6793L219.239 28.7112L187.179 31.8437L188.813 19.1884L240.204 14.1669L238.553 26.6473L199.609 71.3839L234.948 67.9309L233.271 80.5905ZM305.875 73.4963L288.948 75.1502L286.162 61.9995L262.194 64.3414L255.883 78.3811L238.345 80.0948L271.038 11.154L290.458 9.25655L305.875 73.4963ZM283.753 50.4456L278.842 27.3027L267.701 52.014L283.753 50.4456Z" fill="#D26522"/>
<path d="M140.676 119.879C141.397 127.256 140.124 134.254 136.855 140.873C133.587 147.491 129.083 152.759 123.343 156.676C119.862 159.017 116.158 160.719 112.229 161.78C108.297 162.811 103.546 163.599 97.977 164.144L74.4027 166.447L83.0849 99.8526L104.166 97.7927C110.377 97.1858 115.424 97.1783 119.309 97.7702C123.193 98.362 126.382 99.3604 128.874 100.765C132.298 102.668 135.003 105.2 136.99 108.362C139.003 111.491 140.232 115.33 140.676 119.879ZM123.244 123.128C122.953 120.154 122.15 117.657 120.834 115.636C119.515 113.587 117.654 112.017 115.252 110.927C114.145 110.447 113.024 110.115 111.887 109.931C110.777 109.716 109.515 109.604 108.101 109.595C106.748 109.609 105.212 109.701 103.492 109.869C101.771 110.037 100.27 110.183 98.9866 110.309L98.4181 110.364L92.8302 152.592L94.361 152.443C96.0522 152.277 97.86 152.101 99.7844 151.913C101.709 151.725 103.262 151.499 104.443 151.237C105.974 150.94 107.336 150.571 108.53 150.131C109.752 149.688 111.07 149.014 112.483 148.111C116.471 145.543 119.378 142.006 121.204 137.501C123.06 132.992 123.739 128.201 123.244 123.128ZM209.425 104.066C209.935 109.285 208.775 113.828 205.944 117.696C203.114 121.564 199.061 124.668 193.785 127.009L211.518 153.049L192.755 154.883L178.175 132.199L168.728 133.122L165.551 157.541L148.756 159.182L157.438 92.5874L182.849 90.1045C190.809 89.3267 197.094 90.0814 201.703 92.3686C206.31 94.6266 208.884 98.5256 209.425 104.066ZM191.592 108.634C191.335 106.01 190.309 104.241 188.512 103.327C186.742 102.382 184.224 102.068 180.958 102.388L172.648 103.2L170.295 121.136L178.561 120.328C183.022 119.892 186.389 118.65 188.662 116.603C190.931 114.527 191.908 111.871 191.592 108.634ZM254.074 148.891L215.936 152.618L217.475 140.81L228.104 139.772L233.706 96.792L223.078 97.8305L224.618 86.0232L262.757 82.2966L261.217 94.1039L250.589 95.1424L244.986 138.122L255.614 137.084L254.074 148.891ZM335.491 75.1896L303.06 144.105L284.253 145.942L269.186 81.6684L286.375 79.9889L296.122 125.973L317.515 76.9461L335.491 75.1896ZM391.999 69.6682L390.362 82.2798L359.964 85.2499L358.39 97.1489L386.6 94.3925L384.923 107.052L356.712 109.809L354.514 126.625L384.911 123.655L383.317 136.263L336.125 140.874L344.807 74.2794L391.999 69.6682Z" fill="#D23D22"/>
</svg>
